M48
; DRILL file {KiCad 7.0.9} date Mon Feb 26 12:30:51 2024
; FORMAT={-:-/ absolute / inch / decimal}
; #@! TF.CreationDate,2024-02-26T12:30:51+11:00
; #@! TF.GenerationSoftware,Kicad,Pcbnew,7.0.9
; #@! TF.FileFunction,Plated,1,2,PTH
FMAT,2
INCH
; #@! TA.AperFunction,Plated,PTH,ViaDrill
T1C0.0157
; #@! TA.AperFunction,Plated,PTH,ComponentDrill
T2C0.0315
; #@! TA.AperFunction,Plated,PTH,ComponentDrill
T3C0.0354
; #@! TA.AperFunction,Plated,PTH,ComponentDrill
T4C0.0394
%
G90
G05
T1
X2.4Y-3.4267
T2
X0.1925Y-2.3016
X0.1925Y-2.4016
X0.1925Y-2.5016
X0.1925Y-2.6016
X0.1925Y-3.0016
X0.3Y-3.3
X0.3Y-3.5016
X0.3925Y-2.3016
X0.3925Y-2.4016
X0.3925Y-2.5016
X0.3925Y-2.6016
X0.3925Y-3.0016
X0.4Y-1.55
X0.4Y-1.7
X0.45Y-1.4
X0.5Y-1.25
X0.525Y-0.8
X0.55Y-0.475
X0.5925Y-2.3016
X0.5925Y-2.4016
X0.5925Y-2.5016
X0.5925Y-2.6016
X0.5925Y-3.0016
X0.6Y-0.325
X0.7Y-3.3
X0.7Y-3.5016
X0.7925Y-2.302
X0.7925Y-2.402
X0.7925Y-2.502
X0.7925Y-2.6016
X0.7925Y-3.0016
X0.8Y-1.55
X0.8Y-1.7
X0.85Y-1.4
X0.9Y-1.25
X0.9Y-3.2016
X0.9Y-3.5016
X0.925Y-0.8
X0.95Y-0.475
X0.9925Y-2.3016
X0.9925Y-2.4016
X0.9925Y-2.5016
X0.9925Y-2.6016
X0.9925Y-3.0016
X1.0Y-0.325
X1.0Y-3.2016
X1.0Y-3.5016
X1.1Y-3.2016
X1.1Y-3.5016
X1.1925Y-2.3016
X1.1925Y-2.4016
X1.1925Y-2.5016
X1.1925Y-2.6016
X1.1925Y-3.0016
X1.2Y-3.2016
X1.2Y-3.5016
X1.3Y-3.2016
X1.3Y-3.5016
X1.3925Y-2.3016
X1.3925Y-2.4016
X1.3925Y-2.5016
X1.3925Y-2.6016
X1.3925Y-3.0016
X1.4Y-3.2016
X1.4Y-3.5016
X1.5Y-1.15
X1.5Y-1.25
X1.5Y-1.35
X1.5Y-1.45
X1.5Y-1.55
X1.5Y-1.65
X1.5Y-1.75
X1.5Y-1.85
X1.5Y-1.95
X1.5Y-3.2016
X1.5Y-3.5016
X1.5925Y-2.3016
X1.5925Y-2.4016
X1.5925Y-2.5016
X1.6Y-2.6016
X1.6Y-3.0016
X1.6Y-3.2016
X1.6Y-3.5016
X1.725Y-0.075
X1.725Y-0.175
X1.725Y-0.275
X1.725Y-0.375
X1.725Y-0.475
X1.725Y-0.575
X1.725Y-0.675
X1.725Y-0.775
X1.725Y-0.875
X1.9Y-2.3016
X1.9Y-2.4016
X1.9Y-2.5016
X1.9Y-2.6016
X1.9Y-3.0016
X1.9Y-3.2016
X1.9Y-3.5016
X2.0Y-3.2016
X2.0Y-3.5016
X2.1Y-2.3016
X2.1Y-2.4016
X2.1Y-2.5016
X2.1Y-2.6016
X2.1Y-3.0016
X2.1Y-3.2016
X2.1Y-3.5016
X2.2Y-3.2016
X2.2Y-3.5016
X2.25Y-1.55
X2.25Y-1.7
X2.275Y-1.4
X2.3Y-2.3016
X2.3Y-2.4016
X2.3Y-2.5016
X2.3Y-2.6016
X2.3Y-3.0016
X2.3Y-3.2016
X2.3Y-3.5016
X2.35Y-0.8
X2.35Y-1.25
X2.4Y-0.475
X2.4Y-3.2016
X2.4Y-3.5016
X2.45Y-0.325
X2.5Y-2.3016
X2.5Y-2.4016
X2.5Y-2.5016
X2.5Y-2.6016
X2.5Y-3.0016
X2.5Y-3.2016
X2.5Y-3.5016
X2.6Y-3.2016
X2.6Y-3.5016
X2.65Y-1.55
X2.65Y-1.7
X2.675Y-1.4
X2.7Y-2.3016
X2.7Y-2.4016
X2.7Y-2.5016
X2.7Y-2.6016
X2.7Y-3.0016
X2.75Y-0.8
X2.75Y-1.25
X2.8Y-0.475
X2.85Y-0.325
X2.9Y-2.3016
X2.9Y-2.4016
X2.9Y-2.5016
X2.9Y-2.6016
X2.9Y-3.0016
X2.9Y-3.3
X2.9Y-3.3984
X3.1Y-2.3016
X3.1Y-2.4016
X3.1Y-2.5016
X3.1Y-2.6016
X3.1Y-3.0016
X3.1Y-3.3
X3.1Y-3.3984
X3.3Y-0.75
X3.3Y-1.15
X3.3Y-2.3016
X3.3Y-2.4016
X3.3Y-2.5016
X3.3Y-2.6016
X3.3Y-3.0016
T3
X0.1028Y-1.8107
X0.115Y-1.7115
X0.1374Y-1.529
X0.1495Y-1.4298
X0.1727Y-1.2652
X0.1849Y-1.1659
X0.2566Y-1.9797
X0.2567Y-0.8519
X0.2688Y-0.7526
X0.2912Y-0.5702
X0.3034Y-0.4709
X0.3266Y-0.3064
X0.3388Y-0.2071
X0.3566Y-1.9797
X0.4Y-1.022
X0.5Y-1.022
X0.5228Y-1.9827
X0.5338Y-0.0768
X0.6228Y-1.9827
X0.6338Y-0.0768
X0.6662Y-1.025
X0.7662Y-1.025
X0.8Y-0.0797
X0.8066Y-1.9827
X0.9Y-0.0797
X0.9066Y-1.9827
X0.95Y-1.025
X1.05Y-1.025
X1.0838Y-0.0797
X1.1096Y-1.8269
X1.1218Y-1.7276
X1.1442Y-1.5452
X1.1564Y-1.4459
X1.1796Y-1.2814
X1.1838Y-0.0797
X1.1918Y-1.1821
X1.2596Y-0.8607
X1.2718Y-0.7615
X1.2942Y-0.579
X1.3064Y-0.4798
X1.3296Y-0.3152
X1.3418Y-0.2159
X1.9158Y-1.8269
X1.928Y-1.7276
X1.9504Y-1.5452
X1.9626Y-1.4459
X1.9858Y-1.2814
X1.998Y-1.1821
X2.0567Y-0.8607
X2.0688Y-0.7615
X2.0838Y-1.9768
X2.0912Y-0.579
X2.1034Y-0.4798
X2.1266Y-0.3152
X2.1388Y-0.2159
X2.1838Y-1.9768
X2.2316Y-1.022
X2.3316Y-1.022
X2.3338Y-0.0768
X2.35Y-1.9797
X2.4338Y-0.0768
X2.45Y-1.9797
X2.4978Y-1.025
X2.5978Y-1.025
X2.6Y-0.0797
X2.6338Y-1.9797
X2.7Y-0.0797
X2.7338Y-1.9797
X2.7816Y-1.025
X2.8816Y-1.025
X2.8838Y-0.0797
X2.9346Y-1.8519
X2.9468Y-1.7526
X2.9692Y-1.5702
X2.9814Y-1.4709
X2.9838Y-0.0797
X3.0046Y-1.3064
X3.0168Y-1.2071
X3.0567Y-0.8495
X3.0688Y-0.7503
X3.0912Y-0.5678
X3.1034Y-0.4686
X3.1266Y-0.304
X3.1388Y-0.2047
X3.45Y-1.4
X3.45Y-1.5
X3.575Y-0.55
X3.575Y-0.65
T4
X-0.1Y-2.3016
X-0.1Y-2.4016
X-0.1Y-2.5016
X-0.1Y-2.6016
X-0.1Y-2.7016
X-0.1Y-2.8016
X-0.1Y-2.9016
X-0.1Y-3.0016
X3.6Y-2.3016
X3.6Y-2.4016
X3.6Y-2.5016
X3.6Y-2.6016
X3.6Y-2.7016
X3.6Y-2.8016
X3.6Y-2.9016
X3.6Y-3.0016
T0
M30
