G04 #@! TF.GenerationSoftware,KiCad,Pcbnew,7.0.9*
G04 #@! TF.CreationDate,2024-02-26T12:30:47+11:00*
G04 #@! TF.ProjectId,7segment,37736567-6d65-46e7-942e-6b696361645f,rev?*
G04 #@! TF.SameCoordinates,PX292dfe0PY1d11680*
G04 #@! TF.FileFunction,Legend,Top*
G04 #@! TF.FilePolarity,Positive*
%FSLAX46Y46*%
G04 Gerber Fmt 4.6, Leading zero omitted, Abs format (unit mm)*
G04 Created by KiCad (PCBNEW 7.0.9) date 2024-02-26 12:30:47*
%MOMM*%
%LPD*%
G01*
G04 APERTURE LIST*
%ADD10C,0.150000*%
%ADD11C,0.120000*%
G04 APERTURE END LIST*
D10*
X12704819Y-72930714D02*
X13419104Y-72930714D01*
X13419104Y-72930714D02*
X13561961Y-72978333D01*
X13561961Y-72978333D02*
X13657200Y-73073571D01*
X13657200Y-73073571D02*
X13704819Y-73216428D01*
X13704819Y-73216428D02*
X13704819Y-73311666D01*
X13704819Y-72454523D02*
X12704819Y-72454523D01*
X12704819Y-72454523D02*
X12704819Y-72073571D01*
X12704819Y-72073571D02*
X12752438Y-71978333D01*
X12752438Y-71978333D02*
X12800057Y-71930714D01*
X12800057Y-71930714D02*
X12895295Y-71883095D01*
X12895295Y-71883095D02*
X13038152Y-71883095D01*
X13038152Y-71883095D02*
X13133390Y-71930714D01*
X13133390Y-71930714D02*
X13181009Y-71978333D01*
X13181009Y-71978333D02*
X13228628Y-72073571D01*
X13228628Y-72073571D02*
X13228628Y-72454523D01*
X12800057Y-71502142D02*
X12752438Y-71454523D01*
X12752438Y-71454523D02*
X12704819Y-71359285D01*
X12704819Y-71359285D02*
X12704819Y-71121190D01*
X12704819Y-71121190D02*
X12752438Y-71025952D01*
X12752438Y-71025952D02*
X12800057Y-70978333D01*
X12800057Y-70978333D02*
X12895295Y-70930714D01*
X12895295Y-70930714D02*
X12990533Y-70930714D01*
X12990533Y-70930714D02*
X13133390Y-70978333D01*
X13133390Y-70978333D02*
X13704819Y-71549761D01*
X13704819Y-71549761D02*
X13704819Y-70930714D01*
X12704819Y-70311666D02*
X12704819Y-70216428D01*
X12704819Y-70216428D02*
X12752438Y-70121190D01*
X12752438Y-70121190D02*
X12800057Y-70073571D01*
X12800057Y-70073571D02*
X12895295Y-70025952D01*
X12895295Y-70025952D02*
X13085771Y-69978333D01*
X13085771Y-69978333D02*
X13323866Y-69978333D01*
X13323866Y-69978333D02*
X13514342Y-70025952D01*
X13514342Y-70025952D02*
X13609580Y-70073571D01*
X13609580Y-70073571D02*
X13657200Y-70121190D01*
X13657200Y-70121190D02*
X13704819Y-70216428D01*
X13704819Y-70216428D02*
X13704819Y-70311666D01*
X13704819Y-70311666D02*
X13657200Y-70406904D01*
X13657200Y-70406904D02*
X13609580Y-70454523D01*
X13609580Y-70454523D02*
X13514342Y-70502142D01*
X13514342Y-70502142D02*
X13323866Y-70549761D01*
X13323866Y-70549761D02*
X13085771Y-70549761D01*
X13085771Y-70549761D02*
X12895295Y-70502142D01*
X12895295Y-70502142D02*
X12800057Y-70454523D01*
X12800057Y-70454523D02*
X12752438Y-70406904D01*
X12752438Y-70406904D02*
X12704819Y-70311666D01*
X12704819Y-69644999D02*
X12704819Y-69025952D01*
X12704819Y-69025952D02*
X13085771Y-69359285D01*
X13085771Y-69359285D02*
X13085771Y-69216428D01*
X13085771Y-69216428D02*
X13133390Y-69121190D01*
X13133390Y-69121190D02*
X13181009Y-69073571D01*
X13181009Y-69073571D02*
X13276247Y-69025952D01*
X13276247Y-69025952D02*
X13514342Y-69025952D01*
X13514342Y-69025952D02*
X13609580Y-69073571D01*
X13609580Y-69073571D02*
X13657200Y-69121190D01*
X13657200Y-69121190D02*
X13704819Y-69216428D01*
X13704819Y-69216428D02*
X13704819Y-69502142D01*
X13704819Y-69502142D02*
X13657200Y-69597380D01*
X13657200Y-69597380D02*
X13609580Y-69644999D01*
X22864819Y-72930714D02*
X23579104Y-72930714D01*
X23579104Y-72930714D02*
X23721961Y-72978333D01*
X23721961Y-72978333D02*
X23817200Y-73073571D01*
X23817200Y-73073571D02*
X23864819Y-73216428D01*
X23864819Y-73216428D02*
X23864819Y-73311666D01*
X23864819Y-72454523D02*
X22864819Y-72454523D01*
X22864819Y-72454523D02*
X22864819Y-72073571D01*
X22864819Y-72073571D02*
X22912438Y-71978333D01*
X22912438Y-71978333D02*
X22960057Y-71930714D01*
X22960057Y-71930714D02*
X23055295Y-71883095D01*
X23055295Y-71883095D02*
X23198152Y-71883095D01*
X23198152Y-71883095D02*
X23293390Y-71930714D01*
X23293390Y-71930714D02*
X23341009Y-71978333D01*
X23341009Y-71978333D02*
X23388628Y-72073571D01*
X23388628Y-72073571D02*
X23388628Y-72454523D01*
X22960057Y-71502142D02*
X22912438Y-71454523D01*
X22912438Y-71454523D02*
X22864819Y-71359285D01*
X22864819Y-71359285D02*
X22864819Y-71121190D01*
X22864819Y-71121190D02*
X22912438Y-71025952D01*
X22912438Y-71025952D02*
X22960057Y-70978333D01*
X22960057Y-70978333D02*
X23055295Y-70930714D01*
X23055295Y-70930714D02*
X23150533Y-70930714D01*
X23150533Y-70930714D02*
X23293390Y-70978333D01*
X23293390Y-70978333D02*
X23864819Y-71549761D01*
X23864819Y-71549761D02*
X23864819Y-70930714D01*
X22864819Y-70311666D02*
X22864819Y-70216428D01*
X22864819Y-70216428D02*
X22912438Y-70121190D01*
X22912438Y-70121190D02*
X22960057Y-70073571D01*
X22960057Y-70073571D02*
X23055295Y-70025952D01*
X23055295Y-70025952D02*
X23245771Y-69978333D01*
X23245771Y-69978333D02*
X23483866Y-69978333D01*
X23483866Y-69978333D02*
X23674342Y-70025952D01*
X23674342Y-70025952D02*
X23769580Y-70073571D01*
X23769580Y-70073571D02*
X23817200Y-70121190D01*
X23817200Y-70121190D02*
X23864819Y-70216428D01*
X23864819Y-70216428D02*
X23864819Y-70311666D01*
X23864819Y-70311666D02*
X23817200Y-70406904D01*
X23817200Y-70406904D02*
X23769580Y-70454523D01*
X23769580Y-70454523D02*
X23674342Y-70502142D01*
X23674342Y-70502142D02*
X23483866Y-70549761D01*
X23483866Y-70549761D02*
X23245771Y-70549761D01*
X23245771Y-70549761D02*
X23055295Y-70502142D01*
X23055295Y-70502142D02*
X22960057Y-70454523D01*
X22960057Y-70454523D02*
X22912438Y-70406904D01*
X22912438Y-70406904D02*
X22864819Y-70311666D01*
X22864819Y-69073571D02*
X22864819Y-69549761D01*
X22864819Y-69549761D02*
X23341009Y-69597380D01*
X23341009Y-69597380D02*
X23293390Y-69549761D01*
X23293390Y-69549761D02*
X23245771Y-69454523D01*
X23245771Y-69454523D02*
X23245771Y-69216428D01*
X23245771Y-69216428D02*
X23293390Y-69121190D01*
X23293390Y-69121190D02*
X23341009Y-69073571D01*
X23341009Y-69073571D02*
X23436247Y-69025952D01*
X23436247Y-69025952D02*
X23674342Y-69025952D01*
X23674342Y-69025952D02*
X23769580Y-69073571D01*
X23769580Y-69073571D02*
X23817200Y-69121190D01*
X23817200Y-69121190D02*
X23864819Y-69216428D01*
X23864819Y-69216428D02*
X23864819Y-69454523D01*
X23864819Y-69454523D02*
X23817200Y-69549761D01*
X23817200Y-69549761D02*
X23769580Y-69597380D01*
X76394819Y-72930714D02*
X77109104Y-72930714D01*
X77109104Y-72930714D02*
X77251961Y-72978333D01*
X77251961Y-72978333D02*
X77347200Y-73073571D01*
X77347200Y-73073571D02*
X77394819Y-73216428D01*
X77394819Y-73216428D02*
X77394819Y-73311666D01*
X77394819Y-72454523D02*
X76394819Y-72454523D01*
X76394819Y-72454523D02*
X76394819Y-72073571D01*
X76394819Y-72073571D02*
X76442438Y-71978333D01*
X76442438Y-71978333D02*
X76490057Y-71930714D01*
X76490057Y-71930714D02*
X76585295Y-71883095D01*
X76585295Y-71883095D02*
X76728152Y-71883095D01*
X76728152Y-71883095D02*
X76823390Y-71930714D01*
X76823390Y-71930714D02*
X76871009Y-71978333D01*
X76871009Y-71978333D02*
X76918628Y-72073571D01*
X76918628Y-72073571D02*
X76918628Y-72454523D01*
X76394819Y-71549761D02*
X76394819Y-70930714D01*
X76394819Y-70930714D02*
X76775771Y-71264047D01*
X76775771Y-71264047D02*
X76775771Y-71121190D01*
X76775771Y-71121190D02*
X76823390Y-71025952D01*
X76823390Y-71025952D02*
X76871009Y-70978333D01*
X76871009Y-70978333D02*
X76966247Y-70930714D01*
X76966247Y-70930714D02*
X77204342Y-70930714D01*
X77204342Y-70930714D02*
X77299580Y-70978333D01*
X77299580Y-70978333D02*
X77347200Y-71025952D01*
X77347200Y-71025952D02*
X77394819Y-71121190D01*
X77394819Y-71121190D02*
X77394819Y-71406904D01*
X77394819Y-71406904D02*
X77347200Y-71502142D01*
X77347200Y-71502142D02*
X77299580Y-71549761D01*
X76394819Y-70311666D02*
X76394819Y-70216428D01*
X76394819Y-70216428D02*
X76442438Y-70121190D01*
X76442438Y-70121190D02*
X76490057Y-70073571D01*
X76490057Y-70073571D02*
X76585295Y-70025952D01*
X76585295Y-70025952D02*
X76775771Y-69978333D01*
X76775771Y-69978333D02*
X77013866Y-69978333D01*
X77013866Y-69978333D02*
X77204342Y-70025952D01*
X77204342Y-70025952D02*
X77299580Y-70073571D01*
X77299580Y-70073571D02*
X77347200Y-70121190D01*
X77347200Y-70121190D02*
X77394819Y-70216428D01*
X77394819Y-70216428D02*
X77394819Y-70311666D01*
X77394819Y-70311666D02*
X77347200Y-70406904D01*
X77347200Y-70406904D02*
X77299580Y-70454523D01*
X77299580Y-70454523D02*
X77204342Y-70502142D01*
X77204342Y-70502142D02*
X77013866Y-70549761D01*
X77013866Y-70549761D02*
X76775771Y-70549761D01*
X76775771Y-70549761D02*
X76585295Y-70502142D01*
X76585295Y-70502142D02*
X76490057Y-70454523D01*
X76490057Y-70454523D02*
X76442438Y-70406904D01*
X76442438Y-70406904D02*
X76394819Y-70311666D01*
X76394819Y-69644999D02*
X76394819Y-68978333D01*
X76394819Y-68978333D02*
X77394819Y-69406904D01*
X33024819Y-72930714D02*
X33739104Y-72930714D01*
X33739104Y-72930714D02*
X33881961Y-72978333D01*
X33881961Y-72978333D02*
X33977200Y-73073571D01*
X33977200Y-73073571D02*
X34024819Y-73216428D01*
X34024819Y-73216428D02*
X34024819Y-73311666D01*
X34024819Y-72454523D02*
X33024819Y-72454523D01*
X33024819Y-72454523D02*
X33024819Y-72073571D01*
X33024819Y-72073571D02*
X33072438Y-71978333D01*
X33072438Y-71978333D02*
X33120057Y-71930714D01*
X33120057Y-71930714D02*
X33215295Y-71883095D01*
X33215295Y-71883095D02*
X33358152Y-71883095D01*
X33358152Y-71883095D02*
X33453390Y-71930714D01*
X33453390Y-71930714D02*
X33501009Y-71978333D01*
X33501009Y-71978333D02*
X33548628Y-72073571D01*
X33548628Y-72073571D02*
X33548628Y-72454523D01*
X33120057Y-71502142D02*
X33072438Y-71454523D01*
X33072438Y-71454523D02*
X33024819Y-71359285D01*
X33024819Y-71359285D02*
X33024819Y-71121190D01*
X33024819Y-71121190D02*
X33072438Y-71025952D01*
X33072438Y-71025952D02*
X33120057Y-70978333D01*
X33120057Y-70978333D02*
X33215295Y-70930714D01*
X33215295Y-70930714D02*
X33310533Y-70930714D01*
X33310533Y-70930714D02*
X33453390Y-70978333D01*
X33453390Y-70978333D02*
X34024819Y-71549761D01*
X34024819Y-71549761D02*
X34024819Y-70930714D01*
X33024819Y-70311666D02*
X33024819Y-70216428D01*
X33024819Y-70216428D02*
X33072438Y-70121190D01*
X33072438Y-70121190D02*
X33120057Y-70073571D01*
X33120057Y-70073571D02*
X33215295Y-70025952D01*
X33215295Y-70025952D02*
X33405771Y-69978333D01*
X33405771Y-69978333D02*
X33643866Y-69978333D01*
X33643866Y-69978333D02*
X33834342Y-70025952D01*
X33834342Y-70025952D02*
X33929580Y-70073571D01*
X33929580Y-70073571D02*
X33977200Y-70121190D01*
X33977200Y-70121190D02*
X34024819Y-70216428D01*
X34024819Y-70216428D02*
X34024819Y-70311666D01*
X34024819Y-70311666D02*
X33977200Y-70406904D01*
X33977200Y-70406904D02*
X33929580Y-70454523D01*
X33929580Y-70454523D02*
X33834342Y-70502142D01*
X33834342Y-70502142D02*
X33643866Y-70549761D01*
X33643866Y-70549761D02*
X33405771Y-70549761D01*
X33405771Y-70549761D02*
X33215295Y-70502142D01*
X33215295Y-70502142D02*
X33120057Y-70454523D01*
X33120057Y-70454523D02*
X33072438Y-70406904D01*
X33072438Y-70406904D02*
X33024819Y-70311666D01*
X33024819Y-69644999D02*
X33024819Y-68978333D01*
X33024819Y-68978333D02*
X34024819Y-69406904D01*
X21169522Y2085181D02*
X21169522Y3085181D01*
X21169522Y3085181D02*
X21407617Y3085181D01*
X21407617Y3085181D02*
X21550474Y3037562D01*
X21550474Y3037562D02*
X21645712Y2942324D01*
X21645712Y2942324D02*
X21693331Y2847086D01*
X21693331Y2847086D02*
X21740950Y2656610D01*
X21740950Y2656610D02*
X21740950Y2513753D01*
X21740950Y2513753D02*
X21693331Y2323277D01*
X21693331Y2323277D02*
X21645712Y2228039D01*
X21645712Y2228039D02*
X21550474Y2132800D01*
X21550474Y2132800D02*
X21407617Y2085181D01*
X21407617Y2085181D02*
X21169522Y2085181D01*
X22598093Y2751848D02*
X22598093Y2085181D01*
X22359998Y3132800D02*
X22121903Y2418515D01*
X22121903Y2418515D02*
X22740950Y2418515D01*
X23312379Y3085181D02*
X23407617Y3085181D01*
X23407617Y3085181D02*
X23502855Y3037562D01*
X23502855Y3037562D02*
X23550474Y2989943D01*
X23550474Y2989943D02*
X23598093Y2894705D01*
X23598093Y2894705D02*
X23645712Y2704229D01*
X23645712Y2704229D02*
X23645712Y2466134D01*
X23645712Y2466134D02*
X23598093Y2275658D01*
X23598093Y2275658D02*
X23550474Y2180420D01*
X23550474Y2180420D02*
X23502855Y2132800D01*
X23502855Y2132800D02*
X23407617Y2085181D01*
X23407617Y2085181D02*
X23312379Y2085181D01*
X23312379Y2085181D02*
X23217141Y2132800D01*
X23217141Y2132800D02*
X23169522Y2180420D01*
X23169522Y2180420D02*
X23121903Y2275658D01*
X23121903Y2275658D02*
X23074284Y2466134D01*
X23074284Y2466134D02*
X23074284Y2704229D01*
X23074284Y2704229D02*
X23121903Y2894705D01*
X23121903Y2894705D02*
X23169522Y2989943D01*
X23169522Y2989943D02*
X23217141Y3037562D01*
X23217141Y3037562D02*
X23312379Y3085181D01*
X24598093Y2085181D02*
X24026665Y2085181D01*
X24312379Y2085181D02*
X24312379Y3085181D01*
X24312379Y3085181D02*
X24217141Y2942324D01*
X24217141Y2942324D02*
X24121903Y2847086D01*
X24121903Y2847086D02*
X24026665Y2799467D01*
X-455257Y-38833594D02*
X-1447803Y-38711725D01*
X-1447803Y-38711725D02*
X-1418786Y-38475404D01*
X-1418786Y-38475404D02*
X-1354112Y-38339415D01*
X-1354112Y-38339415D02*
X-1247978Y-38256494D01*
X-1247978Y-38256494D02*
X-1147646Y-38220836D01*
X-1147646Y-38220836D02*
X-952786Y-38196785D01*
X-952786Y-38196785D02*
X-810994Y-38214195D01*
X-810994Y-38214195D02*
X-627741Y-38284673D01*
X-627741Y-38284673D02*
X-539016Y-38343543D01*
X-539016Y-38343543D02*
X-456094Y-38449678D01*
X-456094Y-38449678D02*
X-426240Y-38597274D01*
X-426240Y-38597274D02*
X-455257Y-38833594D01*
X-942855Y-37334425D02*
X-281158Y-37415671D01*
X-1349984Y-37524319D02*
X-670039Y-37847689D01*
X-670039Y-37847689D02*
X-594597Y-37233256D01*
X-1186654Y-36584840D02*
X-1175048Y-36490312D01*
X-1175048Y-36490312D02*
X-1116177Y-36401587D01*
X-1116177Y-36401587D02*
X-1063110Y-36360126D01*
X-1063110Y-36360126D02*
X-962778Y-36324469D01*
X-962778Y-36324469D02*
X-767918Y-36300418D01*
X-767918Y-36300418D02*
X-531598Y-36329434D01*
X-531598Y-36329434D02*
X-348345Y-36399912D01*
X-348345Y-36399912D02*
X-259620Y-36458782D01*
X-259620Y-36458782D02*
X-218159Y-36511850D01*
X-218159Y-36511850D02*
X-182502Y-36612181D01*
X-182502Y-36612181D02*
X-194108Y-36706710D01*
X-194108Y-36706710D02*
X-252979Y-36795434D01*
X-252979Y-36795434D02*
X-306046Y-36836895D01*
X-306046Y-36836895D02*
X-406378Y-36872553D01*
X-406378Y-36872553D02*
X-601238Y-36896604D01*
X-601238Y-36896604D02*
X-837558Y-36867587D01*
X-837558Y-36867587D02*
X-1020811Y-36797110D01*
X-1020811Y-36797110D02*
X-1109536Y-36738239D01*
X-1109536Y-36738239D02*
X-1150997Y-36685172D01*
X-1150997Y-36685172D02*
X-1186654Y-36584840D01*
X-1035768Y-35355973D02*
X-1093801Y-35828615D01*
X-1093801Y-35828615D02*
X-626964Y-35933912D01*
X-626964Y-35933912D02*
X-668425Y-35880844D01*
X-668425Y-35880844D02*
X-704082Y-35780513D01*
X-704082Y-35780513D02*
X-675066Y-35544192D01*
X-675066Y-35544192D02*
X-616195Y-35455467D01*
X-616195Y-35455467D02*
X-563127Y-35414007D01*
X-563127Y-35414007D02*
X-462796Y-35378349D01*
X-462796Y-35378349D02*
X-226475Y-35407366D01*
X-226475Y-35407366D02*
X-137751Y-35466236D01*
X-137751Y-35466236D02*
X-96290Y-35519304D01*
X-96290Y-35519304D02*
X-60632Y-35619635D01*
X-60632Y-35619635D02*
X-89649Y-35855956D01*
X-89649Y-35855956D02*
X-148519Y-35944681D01*
X-148519Y-35944681D02*
X-201587Y-35986141D01*
X56074819Y-72955714D02*
X56789104Y-72955714D01*
X56789104Y-72955714D02*
X56931961Y-73003333D01*
X56931961Y-73003333D02*
X57027200Y-73098571D01*
X57027200Y-73098571D02*
X57074819Y-73241428D01*
X57074819Y-73241428D02*
X57074819Y-73336666D01*
X57074819Y-72479523D02*
X56074819Y-72479523D01*
X56074819Y-72479523D02*
X56074819Y-72098571D01*
X56074819Y-72098571D02*
X56122438Y-72003333D01*
X56122438Y-72003333D02*
X56170057Y-71955714D01*
X56170057Y-71955714D02*
X56265295Y-71908095D01*
X56265295Y-71908095D02*
X56408152Y-71908095D01*
X56408152Y-71908095D02*
X56503390Y-71955714D01*
X56503390Y-71955714D02*
X56551009Y-72003333D01*
X56551009Y-72003333D02*
X56598628Y-72098571D01*
X56598628Y-72098571D02*
X56598628Y-72479523D01*
X56074819Y-71574761D02*
X56074819Y-70955714D01*
X56074819Y-70955714D02*
X56455771Y-71289047D01*
X56455771Y-71289047D02*
X56455771Y-71146190D01*
X56455771Y-71146190D02*
X56503390Y-71050952D01*
X56503390Y-71050952D02*
X56551009Y-71003333D01*
X56551009Y-71003333D02*
X56646247Y-70955714D01*
X56646247Y-70955714D02*
X56884342Y-70955714D01*
X56884342Y-70955714D02*
X56979580Y-71003333D01*
X56979580Y-71003333D02*
X57027200Y-71050952D01*
X57027200Y-71050952D02*
X57074819Y-71146190D01*
X57074819Y-71146190D02*
X57074819Y-71431904D01*
X57074819Y-71431904D02*
X57027200Y-71527142D01*
X57027200Y-71527142D02*
X56979580Y-71574761D01*
X56074819Y-70336666D02*
X56074819Y-70241428D01*
X56074819Y-70241428D02*
X56122438Y-70146190D01*
X56122438Y-70146190D02*
X56170057Y-70098571D01*
X56170057Y-70098571D02*
X56265295Y-70050952D01*
X56265295Y-70050952D02*
X56455771Y-70003333D01*
X56455771Y-70003333D02*
X56693866Y-70003333D01*
X56693866Y-70003333D02*
X56884342Y-70050952D01*
X56884342Y-70050952D02*
X56979580Y-70098571D01*
X56979580Y-70098571D02*
X57027200Y-70146190D01*
X57027200Y-70146190D02*
X57074819Y-70241428D01*
X57074819Y-70241428D02*
X57074819Y-70336666D01*
X57074819Y-70336666D02*
X57027200Y-70431904D01*
X57027200Y-70431904D02*
X56979580Y-70479523D01*
X56979580Y-70479523D02*
X56884342Y-70527142D01*
X56884342Y-70527142D02*
X56693866Y-70574761D01*
X56693866Y-70574761D02*
X56455771Y-70574761D01*
X56455771Y-70574761D02*
X56265295Y-70527142D01*
X56265295Y-70527142D02*
X56170057Y-70479523D01*
X56170057Y-70479523D02*
X56122438Y-70431904D01*
X56122438Y-70431904D02*
X56074819Y-70336666D01*
X56074819Y-69669999D02*
X56074819Y-69050952D01*
X56074819Y-69050952D02*
X56455771Y-69384285D01*
X56455771Y-69384285D02*
X56455771Y-69241428D01*
X56455771Y-69241428D02*
X56503390Y-69146190D01*
X56503390Y-69146190D02*
X56551009Y-69098571D01*
X56551009Y-69098571D02*
X56646247Y-69050952D01*
X56646247Y-69050952D02*
X56884342Y-69050952D01*
X56884342Y-69050952D02*
X56979580Y-69098571D01*
X56979580Y-69098571D02*
X57027200Y-69146190D01*
X57027200Y-69146190D02*
X57074819Y-69241428D01*
X57074819Y-69241428D02*
X57074819Y-69527142D01*
X57074819Y-69527142D02*
X57027200Y-69622380D01*
X57027200Y-69622380D02*
X56979580Y-69669999D01*
X66889522Y2085181D02*
X66889522Y3085181D01*
X66889522Y3085181D02*
X67127617Y3085181D01*
X67127617Y3085181D02*
X67270474Y3037562D01*
X67270474Y3037562D02*
X67365712Y2942324D01*
X67365712Y2942324D02*
X67413331Y2847086D01*
X67413331Y2847086D02*
X67460950Y2656610D01*
X67460950Y2656610D02*
X67460950Y2513753D01*
X67460950Y2513753D02*
X67413331Y2323277D01*
X67413331Y2323277D02*
X67365712Y2228039D01*
X67365712Y2228039D02*
X67270474Y2132800D01*
X67270474Y2132800D02*
X67127617Y2085181D01*
X67127617Y2085181D02*
X66889522Y2085181D01*
X68365712Y3085181D02*
X67889522Y3085181D01*
X67889522Y3085181D02*
X67841903Y2608991D01*
X67841903Y2608991D02*
X67889522Y2656610D01*
X67889522Y2656610D02*
X67984760Y2704229D01*
X67984760Y2704229D02*
X68222855Y2704229D01*
X68222855Y2704229D02*
X68318093Y2656610D01*
X68318093Y2656610D02*
X68365712Y2608991D01*
X68365712Y2608991D02*
X68413331Y2513753D01*
X68413331Y2513753D02*
X68413331Y2275658D01*
X68413331Y2275658D02*
X68365712Y2180420D01*
X68365712Y2180420D02*
X68318093Y2132800D01*
X68318093Y2132800D02*
X68222855Y2085181D01*
X68222855Y2085181D02*
X67984760Y2085181D01*
X67984760Y2085181D02*
X67889522Y2132800D01*
X67889522Y2132800D02*
X67841903Y2180420D01*
X69032379Y3085181D02*
X69127617Y3085181D01*
X69127617Y3085181D02*
X69222855Y3037562D01*
X69222855Y3037562D02*
X69270474Y2989943D01*
X69270474Y2989943D02*
X69318093Y2894705D01*
X69318093Y2894705D02*
X69365712Y2704229D01*
X69365712Y2704229D02*
X69365712Y2466134D01*
X69365712Y2466134D02*
X69318093Y2275658D01*
X69318093Y2275658D02*
X69270474Y2180420D01*
X69270474Y2180420D02*
X69222855Y2132800D01*
X69222855Y2132800D02*
X69127617Y2085181D01*
X69127617Y2085181D02*
X69032379Y2085181D01*
X69032379Y2085181D02*
X68937141Y2132800D01*
X68937141Y2132800D02*
X68889522Y2180420D01*
X68889522Y2180420D02*
X68841903Y2275658D01*
X68841903Y2275658D02*
X68794284Y2466134D01*
X68794284Y2466134D02*
X68794284Y2704229D01*
X68794284Y2704229D02*
X68841903Y2894705D01*
X68841903Y2894705D02*
X68889522Y2989943D01*
X68889522Y2989943D02*
X68937141Y3037562D01*
X68937141Y3037562D02*
X69032379Y3085181D01*
X70318093Y2085181D02*
X69746665Y2085181D01*
X70032379Y2085181D02*
X70032379Y3085181D01*
X70032379Y3085181D02*
X69937141Y2942324D01*
X69937141Y2942324D02*
X69841903Y2847086D01*
X69841903Y2847086D02*
X69746665Y2799467D01*
X17784819Y-72930714D02*
X18499104Y-72930714D01*
X18499104Y-72930714D02*
X18641961Y-72978333D01*
X18641961Y-72978333D02*
X18737200Y-73073571D01*
X18737200Y-73073571D02*
X18784819Y-73216428D01*
X18784819Y-73216428D02*
X18784819Y-73311666D01*
X18784819Y-72454523D02*
X17784819Y-72454523D01*
X17784819Y-72454523D02*
X17784819Y-72073571D01*
X17784819Y-72073571D02*
X17832438Y-71978333D01*
X17832438Y-71978333D02*
X17880057Y-71930714D01*
X17880057Y-71930714D02*
X17975295Y-71883095D01*
X17975295Y-71883095D02*
X18118152Y-71883095D01*
X18118152Y-71883095D02*
X18213390Y-71930714D01*
X18213390Y-71930714D02*
X18261009Y-71978333D01*
X18261009Y-71978333D02*
X18308628Y-72073571D01*
X18308628Y-72073571D02*
X18308628Y-72454523D01*
X17880057Y-71502142D02*
X17832438Y-71454523D01*
X17832438Y-71454523D02*
X17784819Y-71359285D01*
X17784819Y-71359285D02*
X17784819Y-71121190D01*
X17784819Y-71121190D02*
X17832438Y-71025952D01*
X17832438Y-71025952D02*
X17880057Y-70978333D01*
X17880057Y-70978333D02*
X17975295Y-70930714D01*
X17975295Y-70930714D02*
X18070533Y-70930714D01*
X18070533Y-70930714D02*
X18213390Y-70978333D01*
X18213390Y-70978333D02*
X18784819Y-71549761D01*
X18784819Y-71549761D02*
X18784819Y-70930714D01*
X17784819Y-70311666D02*
X17784819Y-70216428D01*
X17784819Y-70216428D02*
X17832438Y-70121190D01*
X17832438Y-70121190D02*
X17880057Y-70073571D01*
X17880057Y-70073571D02*
X17975295Y-70025952D01*
X17975295Y-70025952D02*
X18165771Y-69978333D01*
X18165771Y-69978333D02*
X18403866Y-69978333D01*
X18403866Y-69978333D02*
X18594342Y-70025952D01*
X18594342Y-70025952D02*
X18689580Y-70073571D01*
X18689580Y-70073571D02*
X18737200Y-70121190D01*
X18737200Y-70121190D02*
X18784819Y-70216428D01*
X18784819Y-70216428D02*
X18784819Y-70311666D01*
X18784819Y-70311666D02*
X18737200Y-70406904D01*
X18737200Y-70406904D02*
X18689580Y-70454523D01*
X18689580Y-70454523D02*
X18594342Y-70502142D01*
X18594342Y-70502142D02*
X18403866Y-70549761D01*
X18403866Y-70549761D02*
X18165771Y-70549761D01*
X18165771Y-70549761D02*
X17975295Y-70502142D01*
X17975295Y-70502142D02*
X17880057Y-70454523D01*
X17880057Y-70454523D02*
X17832438Y-70406904D01*
X17832438Y-70406904D02*
X17784819Y-70311666D01*
X18118152Y-69121190D02*
X18784819Y-69121190D01*
X17737200Y-69359285D02*
X18451485Y-69597380D01*
X18451485Y-69597380D02*
X18451485Y-68978333D01*
X87299819Y-16930475D02*
X86299819Y-16930475D01*
X86299819Y-16930475D02*
X86299819Y-16692380D01*
X86299819Y-16692380D02*
X86347438Y-16549523D01*
X86347438Y-16549523D02*
X86442676Y-16454285D01*
X86442676Y-16454285D02*
X86537914Y-16406666D01*
X86537914Y-16406666D02*
X86728390Y-16359047D01*
X86728390Y-16359047D02*
X86871247Y-16359047D01*
X86871247Y-16359047D02*
X87061723Y-16406666D01*
X87061723Y-16406666D02*
X87156961Y-16454285D01*
X87156961Y-16454285D02*
X87252200Y-16549523D01*
X87252200Y-16549523D02*
X87299819Y-16692380D01*
X87299819Y-16692380D02*
X87299819Y-16930475D01*
X87299819Y-15406666D02*
X87299819Y-15978094D01*
X87299819Y-15692380D02*
X86299819Y-15692380D01*
X86299819Y-15692380D02*
X86442676Y-15787618D01*
X86442676Y-15787618D02*
X86537914Y-15882856D01*
X86537914Y-15882856D02*
X86585533Y-15978094D01*
X86299819Y-14787618D02*
X86299819Y-14692380D01*
X86299819Y-14692380D02*
X86347438Y-14597142D01*
X86347438Y-14597142D02*
X86395057Y-14549523D01*
X86395057Y-14549523D02*
X86490295Y-14501904D01*
X86490295Y-14501904D02*
X86680771Y-14454285D01*
X86680771Y-14454285D02*
X86918866Y-14454285D01*
X86918866Y-14454285D02*
X87109342Y-14501904D01*
X87109342Y-14501904D02*
X87204580Y-14549523D01*
X87204580Y-14549523D02*
X87252200Y-14597142D01*
X87252200Y-14597142D02*
X87299819Y-14692380D01*
X87299819Y-14692380D02*
X87299819Y-14787618D01*
X87299819Y-14787618D02*
X87252200Y-14882856D01*
X87252200Y-14882856D02*
X87204580Y-14930475D01*
X87204580Y-14930475D02*
X87109342Y-14978094D01*
X87109342Y-14978094D02*
X86918866Y-15025713D01*
X86918866Y-15025713D02*
X86680771Y-15025713D01*
X86680771Y-15025713D02*
X86490295Y-14978094D01*
X86490295Y-14978094D02*
X86395057Y-14930475D01*
X86395057Y-14930475D02*
X86347438Y-14882856D01*
X86347438Y-14882856D02*
X86299819Y-14787618D01*
X87299819Y-13501904D02*
X87299819Y-14073332D01*
X87299819Y-13787618D02*
X86299819Y-13787618D01*
X86299819Y-13787618D02*
X86442676Y-13882856D01*
X86442676Y-13882856D02*
X86537914Y-13978094D01*
X86537914Y-13978094D02*
X86585533Y-14073332D01*
X84124819Y-38520475D02*
X83124819Y-38520475D01*
X83124819Y-38520475D02*
X83124819Y-38282380D01*
X83124819Y-38282380D02*
X83172438Y-38139523D01*
X83172438Y-38139523D02*
X83267676Y-38044285D01*
X83267676Y-38044285D02*
X83362914Y-37996666D01*
X83362914Y-37996666D02*
X83553390Y-37949047D01*
X83553390Y-37949047D02*
X83696247Y-37949047D01*
X83696247Y-37949047D02*
X83886723Y-37996666D01*
X83886723Y-37996666D02*
X83981961Y-38044285D01*
X83981961Y-38044285D02*
X84077200Y-38139523D01*
X84077200Y-38139523D02*
X84124819Y-38282380D01*
X84124819Y-38282380D02*
X84124819Y-38520475D01*
X84124819Y-36996666D02*
X84124819Y-37568094D01*
X84124819Y-37282380D02*
X83124819Y-37282380D01*
X83124819Y-37282380D02*
X83267676Y-37377618D01*
X83267676Y-37377618D02*
X83362914Y-37472856D01*
X83362914Y-37472856D02*
X83410533Y-37568094D01*
X83124819Y-36377618D02*
X83124819Y-36282380D01*
X83124819Y-36282380D02*
X83172438Y-36187142D01*
X83172438Y-36187142D02*
X83220057Y-36139523D01*
X83220057Y-36139523D02*
X83315295Y-36091904D01*
X83315295Y-36091904D02*
X83505771Y-36044285D01*
X83505771Y-36044285D02*
X83743866Y-36044285D01*
X83743866Y-36044285D02*
X83934342Y-36091904D01*
X83934342Y-36091904D02*
X84029580Y-36139523D01*
X84029580Y-36139523D02*
X84077200Y-36187142D01*
X84077200Y-36187142D02*
X84124819Y-36282380D01*
X84124819Y-36282380D02*
X84124819Y-36377618D01*
X84124819Y-36377618D02*
X84077200Y-36472856D01*
X84077200Y-36472856D02*
X84029580Y-36520475D01*
X84029580Y-36520475D02*
X83934342Y-36568094D01*
X83934342Y-36568094D02*
X83743866Y-36615713D01*
X83743866Y-36615713D02*
X83505771Y-36615713D01*
X83505771Y-36615713D02*
X83315295Y-36568094D01*
X83315295Y-36568094D02*
X83220057Y-36520475D01*
X83220057Y-36520475D02*
X83172438Y-36472856D01*
X83172438Y-36472856D02*
X83124819Y-36377618D01*
X83220057Y-35663332D02*
X83172438Y-35615713D01*
X83172438Y-35615713D02*
X83124819Y-35520475D01*
X83124819Y-35520475D02*
X83124819Y-35282380D01*
X83124819Y-35282380D02*
X83172438Y-35187142D01*
X83172438Y-35187142D02*
X83220057Y-35139523D01*
X83220057Y-35139523D02*
X83315295Y-35091904D01*
X83315295Y-35091904D02*
X83410533Y-35091904D01*
X83410533Y-35091904D02*
X83553390Y-35139523D01*
X83553390Y-35139523D02*
X84124819Y-35710951D01*
X84124819Y-35710951D02*
X84124819Y-35091904D01*
X13549524Y-46174819D02*
X13549524Y-45174819D01*
X13549524Y-45174819D02*
X13787619Y-45174819D01*
X13787619Y-45174819D02*
X13930476Y-45222438D01*
X13930476Y-45222438D02*
X14025714Y-45317676D01*
X14025714Y-45317676D02*
X14073333Y-45412914D01*
X14073333Y-45412914D02*
X14120952Y-45603390D01*
X14120952Y-45603390D02*
X14120952Y-45746247D01*
X14120952Y-45746247D02*
X14073333Y-45936723D01*
X14073333Y-45936723D02*
X14025714Y-46031961D01*
X14025714Y-46031961D02*
X13930476Y-46127200D01*
X13930476Y-46127200D02*
X13787619Y-46174819D01*
X13787619Y-46174819D02*
X13549524Y-46174819D01*
X14978095Y-45508152D02*
X14978095Y-46174819D01*
X14740000Y-45127200D02*
X14501905Y-45841485D01*
X14501905Y-45841485D02*
X15120952Y-45841485D01*
X15692381Y-45174819D02*
X15787619Y-45174819D01*
X15787619Y-45174819D02*
X15882857Y-45222438D01*
X15882857Y-45222438D02*
X15930476Y-45270057D01*
X15930476Y-45270057D02*
X15978095Y-45365295D01*
X15978095Y-45365295D02*
X16025714Y-45555771D01*
X16025714Y-45555771D02*
X16025714Y-45793866D01*
X16025714Y-45793866D02*
X15978095Y-45984342D01*
X15978095Y-45984342D02*
X15930476Y-46079580D01*
X15930476Y-46079580D02*
X15882857Y-46127200D01*
X15882857Y-46127200D02*
X15787619Y-46174819D01*
X15787619Y-46174819D02*
X15692381Y-46174819D01*
X15692381Y-46174819D02*
X15597143Y-46127200D01*
X15597143Y-46127200D02*
X15549524Y-46079580D01*
X15549524Y-46079580D02*
X15501905Y-45984342D01*
X15501905Y-45984342D02*
X15454286Y-45793866D01*
X15454286Y-45793866D02*
X15454286Y-45555771D01*
X15454286Y-45555771D02*
X15501905Y-45365295D01*
X15501905Y-45365295D02*
X15549524Y-45270057D01*
X15549524Y-45270057D02*
X15597143Y-45222438D01*
X15597143Y-45222438D02*
X15692381Y-45174819D01*
X16882857Y-45508152D02*
X16882857Y-46174819D01*
X16644762Y-45127200D02*
X16406667Y-45841485D01*
X16406667Y-45841485D02*
X17025714Y-45841485D01*
X81474819Y-72930714D02*
X82189104Y-72930714D01*
X82189104Y-72930714D02*
X82331961Y-72978333D01*
X82331961Y-72978333D02*
X82427200Y-73073571D01*
X82427200Y-73073571D02*
X82474819Y-73216428D01*
X82474819Y-73216428D02*
X82474819Y-73311666D01*
X82474819Y-72454523D02*
X81474819Y-72454523D01*
X81474819Y-72454523D02*
X81474819Y-72073571D01*
X81474819Y-72073571D02*
X81522438Y-71978333D01*
X81522438Y-71978333D02*
X81570057Y-71930714D01*
X81570057Y-71930714D02*
X81665295Y-71883095D01*
X81665295Y-71883095D02*
X81808152Y-71883095D01*
X81808152Y-71883095D02*
X81903390Y-71930714D01*
X81903390Y-71930714D02*
X81951009Y-71978333D01*
X81951009Y-71978333D02*
X81998628Y-72073571D01*
X81998628Y-72073571D02*
X81998628Y-72454523D01*
X81474819Y-71549761D02*
X81474819Y-70930714D01*
X81474819Y-70930714D02*
X81855771Y-71264047D01*
X81855771Y-71264047D02*
X81855771Y-71121190D01*
X81855771Y-71121190D02*
X81903390Y-71025952D01*
X81903390Y-71025952D02*
X81951009Y-70978333D01*
X81951009Y-70978333D02*
X82046247Y-70930714D01*
X82046247Y-70930714D02*
X82284342Y-70930714D01*
X82284342Y-70930714D02*
X82379580Y-70978333D01*
X82379580Y-70978333D02*
X82427200Y-71025952D01*
X82427200Y-71025952D02*
X82474819Y-71121190D01*
X82474819Y-71121190D02*
X82474819Y-71406904D01*
X82474819Y-71406904D02*
X82427200Y-71502142D01*
X82427200Y-71502142D02*
X82379580Y-71549761D01*
X81474819Y-70311666D02*
X81474819Y-70216428D01*
X81474819Y-70216428D02*
X81522438Y-70121190D01*
X81522438Y-70121190D02*
X81570057Y-70073571D01*
X81570057Y-70073571D02*
X81665295Y-70025952D01*
X81665295Y-70025952D02*
X81855771Y-69978333D01*
X81855771Y-69978333D02*
X82093866Y-69978333D01*
X82093866Y-69978333D02*
X82284342Y-70025952D01*
X82284342Y-70025952D02*
X82379580Y-70073571D01*
X82379580Y-70073571D02*
X82427200Y-70121190D01*
X82427200Y-70121190D02*
X82474819Y-70216428D01*
X82474819Y-70216428D02*
X82474819Y-70311666D01*
X82474819Y-70311666D02*
X82427200Y-70406904D01*
X82427200Y-70406904D02*
X82379580Y-70454523D01*
X82379580Y-70454523D02*
X82284342Y-70502142D01*
X82284342Y-70502142D02*
X82093866Y-70549761D01*
X82093866Y-70549761D02*
X81855771Y-70549761D01*
X81855771Y-70549761D02*
X81665295Y-70502142D01*
X81665295Y-70502142D02*
X81570057Y-70454523D01*
X81570057Y-70454523D02*
X81522438Y-70406904D01*
X81522438Y-70406904D02*
X81474819Y-70311666D01*
X81903390Y-69406904D02*
X81855771Y-69502142D01*
X81855771Y-69502142D02*
X81808152Y-69549761D01*
X81808152Y-69549761D02*
X81712914Y-69597380D01*
X81712914Y-69597380D02*
X81665295Y-69597380D01*
X81665295Y-69597380D02*
X81570057Y-69549761D01*
X81570057Y-69549761D02*
X81522438Y-69502142D01*
X81522438Y-69502142D02*
X81474819Y-69406904D01*
X81474819Y-69406904D02*
X81474819Y-69216428D01*
X81474819Y-69216428D02*
X81522438Y-69121190D01*
X81522438Y-69121190D02*
X81570057Y-69073571D01*
X81570057Y-69073571D02*
X81665295Y-69025952D01*
X81665295Y-69025952D02*
X81712914Y-69025952D01*
X81712914Y-69025952D02*
X81808152Y-69073571D01*
X81808152Y-69073571D02*
X81855771Y-69121190D01*
X81855771Y-69121190D02*
X81903390Y-69216428D01*
X81903390Y-69216428D02*
X81903390Y-69406904D01*
X81903390Y-69406904D02*
X81951009Y-69502142D01*
X81951009Y-69502142D02*
X81998628Y-69549761D01*
X81998628Y-69549761D02*
X82093866Y-69597380D01*
X82093866Y-69597380D02*
X82284342Y-69597380D01*
X82284342Y-69597380D02*
X82379580Y-69549761D01*
X82379580Y-69549761D02*
X82427200Y-69502142D01*
X82427200Y-69502142D02*
X82474819Y-69406904D01*
X82474819Y-69406904D02*
X82474819Y-69216428D01*
X82474819Y-69216428D02*
X82427200Y-69121190D01*
X82427200Y-69121190D02*
X82379580Y-69073571D01*
X82379580Y-69073571D02*
X82284342Y-69025952D01*
X82284342Y-69025952D02*
X82093866Y-69025952D01*
X82093866Y-69025952D02*
X81998628Y-69073571D01*
X81998628Y-69073571D02*
X81951009Y-69121190D01*
X81951009Y-69121190D02*
X81903390Y-69216428D01*
X25118543Y-39244594D02*
X24125997Y-39122725D01*
X24125997Y-39122725D02*
X24155014Y-38886404D01*
X24155014Y-38886404D02*
X24219688Y-38750415D01*
X24219688Y-38750415D02*
X24325822Y-38667494D01*
X24325822Y-38667494D02*
X24426154Y-38631836D01*
X24426154Y-38631836D02*
X24621014Y-38607785D01*
X24621014Y-38607785D02*
X24762806Y-38625195D01*
X24762806Y-38625195D02*
X24946059Y-38695673D01*
X24946059Y-38695673D02*
X25034784Y-38754543D01*
X25034784Y-38754543D02*
X25117706Y-38860678D01*
X25117706Y-38860678D02*
X25147560Y-39008274D01*
X25147560Y-39008274D02*
X25118543Y-39244594D01*
X24630945Y-37745425D02*
X25292642Y-37826671D01*
X24223816Y-37935319D02*
X24903761Y-38258689D01*
X24903761Y-38258689D02*
X24979203Y-37644256D01*
X24387146Y-36995840D02*
X24398752Y-36901312D01*
X24398752Y-36901312D02*
X24457623Y-36812587D01*
X24457623Y-36812587D02*
X24510690Y-36771126D01*
X24510690Y-36771126D02*
X24611022Y-36735469D01*
X24611022Y-36735469D02*
X24805882Y-36711418D01*
X24805882Y-36711418D02*
X25042202Y-36740434D01*
X25042202Y-36740434D02*
X25225455Y-36810912D01*
X25225455Y-36810912D02*
X25314180Y-36869782D01*
X25314180Y-36869782D02*
X25355641Y-36922850D01*
X25355641Y-36922850D02*
X25391298Y-37023181D01*
X25391298Y-37023181D02*
X25379692Y-37117710D01*
X25379692Y-37117710D02*
X25320821Y-37206434D01*
X25320821Y-37206434D02*
X25267754Y-37247895D01*
X25267754Y-37247895D02*
X25167422Y-37283553D01*
X25167422Y-37283553D02*
X24972562Y-37307604D01*
X24972562Y-37307604D02*
X24736242Y-37278587D01*
X24736242Y-37278587D02*
X24552989Y-37208110D01*
X24552989Y-37208110D02*
X24464264Y-37149239D01*
X24464264Y-37149239D02*
X24422803Y-37096172D01*
X24422803Y-37096172D02*
X24387146Y-36995840D01*
X24468392Y-36334143D02*
X24543835Y-35719709D01*
X24543835Y-35719709D02*
X24881325Y-36096985D01*
X24881325Y-36096985D02*
X24898734Y-35955192D01*
X24898734Y-35955192D02*
X24957605Y-35866467D01*
X24957605Y-35866467D02*
X25010673Y-35825007D01*
X25010673Y-35825007D02*
X25111004Y-35789349D01*
X25111004Y-35789349D02*
X25347325Y-35818366D01*
X25347325Y-35818366D02*
X25436049Y-35877236D01*
X25436049Y-35877236D02*
X25477510Y-35930304D01*
X25477510Y-35930304D02*
X25513168Y-36030635D01*
X25513168Y-36030635D02*
X25478348Y-36314220D01*
X25478348Y-36314220D02*
X25419477Y-36402945D01*
X25419477Y-36402945D02*
X25366410Y-36444405D01*
X2544819Y-72930714D02*
X3259104Y-72930714D01*
X3259104Y-72930714D02*
X3401961Y-72978333D01*
X3401961Y-72978333D02*
X3497200Y-73073571D01*
X3497200Y-73073571D02*
X3544819Y-73216428D01*
X3544819Y-73216428D02*
X3544819Y-73311666D01*
X3544819Y-72454523D02*
X2544819Y-72454523D01*
X2544819Y-72454523D02*
X2544819Y-72073571D01*
X2544819Y-72073571D02*
X2592438Y-71978333D01*
X2592438Y-71978333D02*
X2640057Y-71930714D01*
X2640057Y-71930714D02*
X2735295Y-71883095D01*
X2735295Y-71883095D02*
X2878152Y-71883095D01*
X2878152Y-71883095D02*
X2973390Y-71930714D01*
X2973390Y-71930714D02*
X3021009Y-71978333D01*
X3021009Y-71978333D02*
X3068628Y-72073571D01*
X3068628Y-72073571D02*
X3068628Y-72454523D01*
X2640057Y-71502142D02*
X2592438Y-71454523D01*
X2592438Y-71454523D02*
X2544819Y-71359285D01*
X2544819Y-71359285D02*
X2544819Y-71121190D01*
X2544819Y-71121190D02*
X2592438Y-71025952D01*
X2592438Y-71025952D02*
X2640057Y-70978333D01*
X2640057Y-70978333D02*
X2735295Y-70930714D01*
X2735295Y-70930714D02*
X2830533Y-70930714D01*
X2830533Y-70930714D02*
X2973390Y-70978333D01*
X2973390Y-70978333D02*
X3544819Y-71549761D01*
X3544819Y-71549761D02*
X3544819Y-70930714D01*
X2544819Y-70311666D02*
X2544819Y-70216428D01*
X2544819Y-70216428D02*
X2592438Y-70121190D01*
X2592438Y-70121190D02*
X2640057Y-70073571D01*
X2640057Y-70073571D02*
X2735295Y-70025952D01*
X2735295Y-70025952D02*
X2925771Y-69978333D01*
X2925771Y-69978333D02*
X3163866Y-69978333D01*
X3163866Y-69978333D02*
X3354342Y-70025952D01*
X3354342Y-70025952D02*
X3449580Y-70073571D01*
X3449580Y-70073571D02*
X3497200Y-70121190D01*
X3497200Y-70121190D02*
X3544819Y-70216428D01*
X3544819Y-70216428D02*
X3544819Y-70311666D01*
X3544819Y-70311666D02*
X3497200Y-70406904D01*
X3497200Y-70406904D02*
X3449580Y-70454523D01*
X3449580Y-70454523D02*
X3354342Y-70502142D01*
X3354342Y-70502142D02*
X3163866Y-70549761D01*
X3163866Y-70549761D02*
X2925771Y-70549761D01*
X2925771Y-70549761D02*
X2735295Y-70502142D01*
X2735295Y-70502142D02*
X2640057Y-70454523D01*
X2640057Y-70454523D02*
X2592438Y-70406904D01*
X2592438Y-70406904D02*
X2544819Y-70311666D01*
X3544819Y-69025952D02*
X3544819Y-69597380D01*
X3544819Y-69311666D02*
X2544819Y-69311666D01*
X2544819Y-69311666D02*
X2687676Y-69406904D01*
X2687676Y-69406904D02*
X2782914Y-69502142D01*
X2782914Y-69502142D02*
X2830533Y-69597380D01*
X38104819Y-72930714D02*
X38819104Y-72930714D01*
X38819104Y-72930714D02*
X38961961Y-72978333D01*
X38961961Y-72978333D02*
X39057200Y-73073571D01*
X39057200Y-73073571D02*
X39104819Y-73216428D01*
X39104819Y-73216428D02*
X39104819Y-73311666D01*
X39104819Y-72454523D02*
X38104819Y-72454523D01*
X38104819Y-72454523D02*
X38104819Y-72073571D01*
X38104819Y-72073571D02*
X38152438Y-71978333D01*
X38152438Y-71978333D02*
X38200057Y-71930714D01*
X38200057Y-71930714D02*
X38295295Y-71883095D01*
X38295295Y-71883095D02*
X38438152Y-71883095D01*
X38438152Y-71883095D02*
X38533390Y-71930714D01*
X38533390Y-71930714D02*
X38581009Y-71978333D01*
X38581009Y-71978333D02*
X38628628Y-72073571D01*
X38628628Y-72073571D02*
X38628628Y-72454523D01*
X38200057Y-71502142D02*
X38152438Y-71454523D01*
X38152438Y-71454523D02*
X38104819Y-71359285D01*
X38104819Y-71359285D02*
X38104819Y-71121190D01*
X38104819Y-71121190D02*
X38152438Y-71025952D01*
X38152438Y-71025952D02*
X38200057Y-70978333D01*
X38200057Y-70978333D02*
X38295295Y-70930714D01*
X38295295Y-70930714D02*
X38390533Y-70930714D01*
X38390533Y-70930714D02*
X38533390Y-70978333D01*
X38533390Y-70978333D02*
X39104819Y-71549761D01*
X39104819Y-71549761D02*
X39104819Y-70930714D01*
X38104819Y-70311666D02*
X38104819Y-70216428D01*
X38104819Y-70216428D02*
X38152438Y-70121190D01*
X38152438Y-70121190D02*
X38200057Y-70073571D01*
X38200057Y-70073571D02*
X38295295Y-70025952D01*
X38295295Y-70025952D02*
X38485771Y-69978333D01*
X38485771Y-69978333D02*
X38723866Y-69978333D01*
X38723866Y-69978333D02*
X38914342Y-70025952D01*
X38914342Y-70025952D02*
X39009580Y-70073571D01*
X39009580Y-70073571D02*
X39057200Y-70121190D01*
X39057200Y-70121190D02*
X39104819Y-70216428D01*
X39104819Y-70216428D02*
X39104819Y-70311666D01*
X39104819Y-70311666D02*
X39057200Y-70406904D01*
X39057200Y-70406904D02*
X39009580Y-70454523D01*
X39009580Y-70454523D02*
X38914342Y-70502142D01*
X38914342Y-70502142D02*
X38723866Y-70549761D01*
X38723866Y-70549761D02*
X38485771Y-70549761D01*
X38485771Y-70549761D02*
X38295295Y-70502142D01*
X38295295Y-70502142D02*
X38200057Y-70454523D01*
X38200057Y-70454523D02*
X38152438Y-70406904D01*
X38152438Y-70406904D02*
X38104819Y-70311666D01*
X38533390Y-69406904D02*
X38485771Y-69502142D01*
X38485771Y-69502142D02*
X38438152Y-69549761D01*
X38438152Y-69549761D02*
X38342914Y-69597380D01*
X38342914Y-69597380D02*
X38295295Y-69597380D01*
X38295295Y-69597380D02*
X38200057Y-69549761D01*
X38200057Y-69549761D02*
X38152438Y-69502142D01*
X38152438Y-69502142D02*
X38104819Y-69406904D01*
X38104819Y-69406904D02*
X38104819Y-69216428D01*
X38104819Y-69216428D02*
X38152438Y-69121190D01*
X38152438Y-69121190D02*
X38200057Y-69073571D01*
X38200057Y-69073571D02*
X38295295Y-69025952D01*
X38295295Y-69025952D02*
X38342914Y-69025952D01*
X38342914Y-69025952D02*
X38438152Y-69073571D01*
X38438152Y-69073571D02*
X38485771Y-69121190D01*
X38485771Y-69121190D02*
X38533390Y-69216428D01*
X38533390Y-69216428D02*
X38533390Y-69406904D01*
X38533390Y-69406904D02*
X38581009Y-69502142D01*
X38581009Y-69502142D02*
X38628628Y-69549761D01*
X38628628Y-69549761D02*
X38723866Y-69597380D01*
X38723866Y-69597380D02*
X38914342Y-69597380D01*
X38914342Y-69597380D02*
X39009580Y-69549761D01*
X39009580Y-69549761D02*
X39057200Y-69502142D01*
X39057200Y-69502142D02*
X39104819Y-69406904D01*
X39104819Y-69406904D02*
X39104819Y-69216428D01*
X39104819Y-69216428D02*
X39057200Y-69121190D01*
X39057200Y-69121190D02*
X39009580Y-69073571D01*
X39009580Y-69073571D02*
X38914342Y-69025952D01*
X38914342Y-69025952D02*
X38723866Y-69025952D01*
X38723866Y-69025952D02*
X38628628Y-69073571D01*
X38628628Y-69073571D02*
X38581009Y-69121190D01*
X38581009Y-69121190D02*
X38533390Y-69216428D01*
X66234819Y-72945714D02*
X66949104Y-72945714D01*
X66949104Y-72945714D02*
X67091961Y-72993333D01*
X67091961Y-72993333D02*
X67187200Y-73088571D01*
X67187200Y-73088571D02*
X67234819Y-73231428D01*
X67234819Y-73231428D02*
X67234819Y-73326666D01*
X67234819Y-72469523D02*
X66234819Y-72469523D01*
X66234819Y-72469523D02*
X66234819Y-72088571D01*
X66234819Y-72088571D02*
X66282438Y-71993333D01*
X66282438Y-71993333D02*
X66330057Y-71945714D01*
X66330057Y-71945714D02*
X66425295Y-71898095D01*
X66425295Y-71898095D02*
X66568152Y-71898095D01*
X66568152Y-71898095D02*
X66663390Y-71945714D01*
X66663390Y-71945714D02*
X66711009Y-71993333D01*
X66711009Y-71993333D02*
X66758628Y-72088571D01*
X66758628Y-72088571D02*
X66758628Y-72469523D01*
X66234819Y-71564761D02*
X66234819Y-70945714D01*
X66234819Y-70945714D02*
X66615771Y-71279047D01*
X66615771Y-71279047D02*
X66615771Y-71136190D01*
X66615771Y-71136190D02*
X66663390Y-71040952D01*
X66663390Y-71040952D02*
X66711009Y-70993333D01*
X66711009Y-70993333D02*
X66806247Y-70945714D01*
X66806247Y-70945714D02*
X67044342Y-70945714D01*
X67044342Y-70945714D02*
X67139580Y-70993333D01*
X67139580Y-70993333D02*
X67187200Y-71040952D01*
X67187200Y-71040952D02*
X67234819Y-71136190D01*
X67234819Y-71136190D02*
X67234819Y-71421904D01*
X67234819Y-71421904D02*
X67187200Y-71517142D01*
X67187200Y-71517142D02*
X67139580Y-71564761D01*
X66234819Y-70326666D02*
X66234819Y-70231428D01*
X66234819Y-70231428D02*
X66282438Y-70136190D01*
X66282438Y-70136190D02*
X66330057Y-70088571D01*
X66330057Y-70088571D02*
X66425295Y-70040952D01*
X66425295Y-70040952D02*
X66615771Y-69993333D01*
X66615771Y-69993333D02*
X66853866Y-69993333D01*
X66853866Y-69993333D02*
X67044342Y-70040952D01*
X67044342Y-70040952D02*
X67139580Y-70088571D01*
X67139580Y-70088571D02*
X67187200Y-70136190D01*
X67187200Y-70136190D02*
X67234819Y-70231428D01*
X67234819Y-70231428D02*
X67234819Y-70326666D01*
X67234819Y-70326666D02*
X67187200Y-70421904D01*
X67187200Y-70421904D02*
X67139580Y-70469523D01*
X67139580Y-70469523D02*
X67044342Y-70517142D01*
X67044342Y-70517142D02*
X66853866Y-70564761D01*
X66853866Y-70564761D02*
X66615771Y-70564761D01*
X66615771Y-70564761D02*
X66425295Y-70517142D01*
X66425295Y-70517142D02*
X66330057Y-70469523D01*
X66330057Y-70469523D02*
X66282438Y-70421904D01*
X66282438Y-70421904D02*
X66234819Y-70326666D01*
X66234819Y-69088571D02*
X66234819Y-69564761D01*
X66234819Y-69564761D02*
X66711009Y-69612380D01*
X66711009Y-69612380D02*
X66663390Y-69564761D01*
X66663390Y-69564761D02*
X66615771Y-69469523D01*
X66615771Y-69469523D02*
X66615771Y-69231428D01*
X66615771Y-69231428D02*
X66663390Y-69136190D01*
X66663390Y-69136190D02*
X66711009Y-69088571D01*
X66711009Y-69088571D02*
X66806247Y-69040952D01*
X66806247Y-69040952D02*
X67044342Y-69040952D01*
X67044342Y-69040952D02*
X67139580Y-69088571D01*
X67139580Y-69088571D02*
X67187200Y-69136190D01*
X67187200Y-69136190D02*
X67234819Y-69231428D01*
X67234819Y-69231428D02*
X67234819Y-69469523D01*
X67234819Y-69469523D02*
X67187200Y-69564761D01*
X67187200Y-69564761D02*
X67139580Y-69612380D01*
X28928543Y-14703594D02*
X27935997Y-14581725D01*
X27935997Y-14581725D02*
X27965014Y-14345404D01*
X27965014Y-14345404D02*
X28029688Y-14209415D01*
X28029688Y-14209415D02*
X28135822Y-14126494D01*
X28135822Y-14126494D02*
X28236154Y-14090836D01*
X28236154Y-14090836D02*
X28431014Y-14066785D01*
X28431014Y-14066785D02*
X28572806Y-14084195D01*
X28572806Y-14084195D02*
X28756059Y-14154673D01*
X28756059Y-14154673D02*
X28844784Y-14213543D01*
X28844784Y-14213543D02*
X28927706Y-14319678D01*
X28927706Y-14319678D02*
X28957560Y-14467274D01*
X28957560Y-14467274D02*
X28928543Y-14703594D01*
X28440945Y-13204425D02*
X29102642Y-13285671D01*
X28033816Y-13394319D02*
X28713761Y-13717689D01*
X28713761Y-13717689D02*
X28789203Y-13103256D01*
X28197146Y-12454840D02*
X28208752Y-12360312D01*
X28208752Y-12360312D02*
X28267623Y-12271587D01*
X28267623Y-12271587D02*
X28320690Y-12230126D01*
X28320690Y-12230126D02*
X28421022Y-12194469D01*
X28421022Y-12194469D02*
X28615882Y-12170418D01*
X28615882Y-12170418D02*
X28852202Y-12199434D01*
X28852202Y-12199434D02*
X29035455Y-12269912D01*
X29035455Y-12269912D02*
X29124180Y-12328782D01*
X29124180Y-12328782D02*
X29165641Y-12381850D01*
X29165641Y-12381850D02*
X29201298Y-12482181D01*
X29201298Y-12482181D02*
X29189692Y-12576710D01*
X29189692Y-12576710D02*
X29130821Y-12665434D01*
X29130821Y-12665434D02*
X29077754Y-12706895D01*
X29077754Y-12706895D02*
X28977422Y-12742553D01*
X28977422Y-12742553D02*
X28782562Y-12766604D01*
X28782562Y-12766604D02*
X28546242Y-12737587D01*
X28546242Y-12737587D02*
X28362989Y-12667110D01*
X28362989Y-12667110D02*
X28274264Y-12608239D01*
X28274264Y-12608239D02*
X28232803Y-12555172D01*
X28232803Y-12555172D02*
X28197146Y-12454840D01*
X28378723Y-11757485D02*
X28337263Y-11704418D01*
X28337263Y-11704418D02*
X28301605Y-11604086D01*
X28301605Y-11604086D02*
X28330622Y-11367766D01*
X28330622Y-11367766D02*
X28389492Y-11279041D01*
X28389492Y-11279041D02*
X28442560Y-11237580D01*
X28442560Y-11237580D02*
X28542891Y-11201923D01*
X28542891Y-11201923D02*
X28637419Y-11213529D01*
X28637419Y-11213529D02*
X28773408Y-11278203D01*
X28773408Y-11278203D02*
X29270938Y-11915012D01*
X29270938Y-11915012D02*
X29346381Y-11300579D01*
X74573543Y-14419694D02*
X73580997Y-14297825D01*
X73580997Y-14297825D02*
X73610014Y-14061504D01*
X73610014Y-14061504D02*
X73674688Y-13925515D01*
X73674688Y-13925515D02*
X73780822Y-13842594D01*
X73780822Y-13842594D02*
X73881154Y-13806936D01*
X73881154Y-13806936D02*
X74076014Y-13782885D01*
X74076014Y-13782885D02*
X74217806Y-13800295D01*
X74217806Y-13800295D02*
X74401059Y-13870773D01*
X74401059Y-13870773D02*
X74489784Y-13929643D01*
X74489784Y-13929643D02*
X74572706Y-14035778D01*
X74572706Y-14035778D02*
X74602560Y-14183374D01*
X74602560Y-14183374D02*
X74573543Y-14419694D01*
X73760899Y-12832638D02*
X73702866Y-13305279D01*
X73702866Y-13305279D02*
X74169704Y-13410576D01*
X74169704Y-13410576D02*
X74128243Y-13357508D01*
X74128243Y-13357508D02*
X74092586Y-13257177D01*
X74092586Y-13257177D02*
X74121602Y-13020856D01*
X74121602Y-13020856D02*
X74180473Y-12932132D01*
X74180473Y-12932132D02*
X74233540Y-12890671D01*
X74233540Y-12890671D02*
X74333872Y-12855013D01*
X74333872Y-12855013D02*
X74570192Y-12884030D01*
X74570192Y-12884030D02*
X74658917Y-12942900D01*
X74658917Y-12942900D02*
X74700378Y-12995968D01*
X74700378Y-12995968D02*
X74736036Y-13096299D01*
X74736036Y-13096299D02*
X74707019Y-13332620D01*
X74707019Y-13332620D02*
X74648148Y-13421345D01*
X74648148Y-13421345D02*
X74595081Y-13462806D01*
X73842146Y-12170940D02*
X73853752Y-12076412D01*
X73853752Y-12076412D02*
X73912623Y-11987687D01*
X73912623Y-11987687D02*
X73965690Y-11946226D01*
X73965690Y-11946226D02*
X74066022Y-11910569D01*
X74066022Y-11910569D02*
X74260882Y-11886518D01*
X74260882Y-11886518D02*
X74497202Y-11915534D01*
X74497202Y-11915534D02*
X74680455Y-11986012D01*
X74680455Y-11986012D02*
X74769180Y-12044882D01*
X74769180Y-12044882D02*
X74810641Y-12097950D01*
X74810641Y-12097950D02*
X74846298Y-12198281D01*
X74846298Y-12198281D02*
X74834692Y-12292810D01*
X74834692Y-12292810D02*
X74775821Y-12381534D01*
X74775821Y-12381534D02*
X74722754Y-12422995D01*
X74722754Y-12422995D02*
X74622422Y-12458653D01*
X74622422Y-12458653D02*
X74427562Y-12482704D01*
X74427562Y-12482704D02*
X74191242Y-12453687D01*
X74191242Y-12453687D02*
X74007989Y-12383210D01*
X74007989Y-12383210D02*
X73919264Y-12324339D01*
X73919264Y-12324339D02*
X73877803Y-12271272D01*
X73877803Y-12271272D02*
X73842146Y-12170940D01*
X74023723Y-11473585D02*
X73982263Y-11420518D01*
X73982263Y-11420518D02*
X73946605Y-11320186D01*
X73946605Y-11320186D02*
X73975622Y-11083866D01*
X73975622Y-11083866D02*
X74034492Y-10995141D01*
X74034492Y-10995141D02*
X74087560Y-10953680D01*
X74087560Y-10953680D02*
X74187891Y-10918023D01*
X74187891Y-10918023D02*
X74282419Y-10929629D01*
X74282419Y-10929629D02*
X74418408Y-10994303D01*
X74418408Y-10994303D02*
X74915938Y-11631112D01*
X74915938Y-11631112D02*
X74991381Y-11016679D01*
X49173543Y-14703594D02*
X48180997Y-14581725D01*
X48180997Y-14581725D02*
X48210014Y-14345404D01*
X48210014Y-14345404D02*
X48274688Y-14209415D01*
X48274688Y-14209415D02*
X48380822Y-14126494D01*
X48380822Y-14126494D02*
X48481154Y-14090836D01*
X48481154Y-14090836D02*
X48676014Y-14066785D01*
X48676014Y-14066785D02*
X48817806Y-14084195D01*
X48817806Y-14084195D02*
X49001059Y-14154673D01*
X49001059Y-14154673D02*
X49089784Y-14213543D01*
X49089784Y-14213543D02*
X49172706Y-14319678D01*
X49172706Y-14319678D02*
X49202560Y-14467274D01*
X49202560Y-14467274D02*
X49173543Y-14703594D01*
X48360899Y-13116538D02*
X48302866Y-13589179D01*
X48302866Y-13589179D02*
X48769704Y-13694476D01*
X48769704Y-13694476D02*
X48728243Y-13641408D01*
X48728243Y-13641408D02*
X48692586Y-13541077D01*
X48692586Y-13541077D02*
X48721602Y-13304756D01*
X48721602Y-13304756D02*
X48780473Y-13216032D01*
X48780473Y-13216032D02*
X48833540Y-13174571D01*
X48833540Y-13174571D02*
X48933872Y-13138913D01*
X48933872Y-13138913D02*
X49170192Y-13167930D01*
X49170192Y-13167930D02*
X49258917Y-13226800D01*
X49258917Y-13226800D02*
X49300378Y-13279868D01*
X49300378Y-13279868D02*
X49336036Y-13380199D01*
X49336036Y-13380199D02*
X49307019Y-13616520D01*
X49307019Y-13616520D02*
X49248148Y-13705245D01*
X49248148Y-13705245D02*
X49195081Y-13746706D01*
X48442146Y-12454840D02*
X48453752Y-12360312D01*
X48453752Y-12360312D02*
X48512623Y-12271587D01*
X48512623Y-12271587D02*
X48565690Y-12230126D01*
X48565690Y-12230126D02*
X48666022Y-12194469D01*
X48666022Y-12194469D02*
X48860882Y-12170418D01*
X48860882Y-12170418D02*
X49097202Y-12199434D01*
X49097202Y-12199434D02*
X49280455Y-12269912D01*
X49280455Y-12269912D02*
X49369180Y-12328782D01*
X49369180Y-12328782D02*
X49410641Y-12381850D01*
X49410641Y-12381850D02*
X49446298Y-12482181D01*
X49446298Y-12482181D02*
X49434692Y-12576710D01*
X49434692Y-12576710D02*
X49375821Y-12665434D01*
X49375821Y-12665434D02*
X49322754Y-12706895D01*
X49322754Y-12706895D02*
X49222422Y-12742553D01*
X49222422Y-12742553D02*
X49027562Y-12766604D01*
X49027562Y-12766604D02*
X48791242Y-12737587D01*
X48791242Y-12737587D02*
X48607989Y-12667110D01*
X48607989Y-12667110D02*
X48519264Y-12608239D01*
X48519264Y-12608239D02*
X48477803Y-12555172D01*
X48477803Y-12555172D02*
X48442146Y-12454840D01*
X48587228Y-11273238D02*
X48564015Y-11462294D01*
X48564015Y-11462294D02*
X48599673Y-11562626D01*
X48599673Y-11562626D02*
X48641133Y-11615693D01*
X48641133Y-11615693D02*
X48771319Y-11727631D01*
X48771319Y-11727631D02*
X48954572Y-11798108D01*
X48954572Y-11798108D02*
X49332685Y-11844535D01*
X49332685Y-11844535D02*
X49433016Y-11808877D01*
X49433016Y-11808877D02*
X49486084Y-11767416D01*
X49486084Y-11767416D02*
X49544955Y-11678692D01*
X49544955Y-11678692D02*
X49568168Y-11489635D01*
X49568168Y-11489635D02*
X49532510Y-11389304D01*
X49532510Y-11389304D02*
X49491049Y-11336236D01*
X49491049Y-11336236D02*
X49402325Y-11277366D01*
X49402325Y-11277366D02*
X49166004Y-11248349D01*
X49166004Y-11248349D02*
X49065673Y-11284007D01*
X49065673Y-11284007D02*
X49012605Y-11325467D01*
X49012605Y-11325467D02*
X48953734Y-11414192D01*
X48953734Y-11414192D02*
X48930521Y-11603249D01*
X48930521Y-11603249D02*
X48966179Y-11703580D01*
X48966179Y-11703580D02*
X49007640Y-11756648D01*
X49007640Y-11756648D02*
X49096364Y-11815518D01*
X63079524Y-30859819D02*
X63079524Y-29859819D01*
X63079524Y-29859819D02*
X63317619Y-29859819D01*
X63317619Y-29859819D02*
X63460476Y-29907438D01*
X63460476Y-29907438D02*
X63555714Y-30002676D01*
X63555714Y-30002676D02*
X63603333Y-30097914D01*
X63603333Y-30097914D02*
X63650952Y-30288390D01*
X63650952Y-30288390D02*
X63650952Y-30431247D01*
X63650952Y-30431247D02*
X63603333Y-30621723D01*
X63603333Y-30621723D02*
X63555714Y-30716961D01*
X63555714Y-30716961D02*
X63460476Y-30812200D01*
X63460476Y-30812200D02*
X63317619Y-30859819D01*
X63317619Y-30859819D02*
X63079524Y-30859819D01*
X64555714Y-29859819D02*
X64079524Y-29859819D01*
X64079524Y-29859819D02*
X64031905Y-30336009D01*
X64031905Y-30336009D02*
X64079524Y-30288390D01*
X64079524Y-30288390D02*
X64174762Y-30240771D01*
X64174762Y-30240771D02*
X64412857Y-30240771D01*
X64412857Y-30240771D02*
X64508095Y-30288390D01*
X64508095Y-30288390D02*
X64555714Y-30336009D01*
X64555714Y-30336009D02*
X64603333Y-30431247D01*
X64603333Y-30431247D02*
X64603333Y-30669342D01*
X64603333Y-30669342D02*
X64555714Y-30764580D01*
X64555714Y-30764580D02*
X64508095Y-30812200D01*
X64508095Y-30812200D02*
X64412857Y-30859819D01*
X64412857Y-30859819D02*
X64174762Y-30859819D01*
X64174762Y-30859819D02*
X64079524Y-30812200D01*
X64079524Y-30812200D02*
X64031905Y-30764580D01*
X65222381Y-29859819D02*
X65317619Y-29859819D01*
X65317619Y-29859819D02*
X65412857Y-29907438D01*
X65412857Y-29907438D02*
X65460476Y-29955057D01*
X65460476Y-29955057D02*
X65508095Y-30050295D01*
X65508095Y-30050295D02*
X65555714Y-30240771D01*
X65555714Y-30240771D02*
X65555714Y-30478866D01*
X65555714Y-30478866D02*
X65508095Y-30669342D01*
X65508095Y-30669342D02*
X65460476Y-30764580D01*
X65460476Y-30764580D02*
X65412857Y-30812200D01*
X65412857Y-30812200D02*
X65317619Y-30859819D01*
X65317619Y-30859819D02*
X65222381Y-30859819D01*
X65222381Y-30859819D02*
X65127143Y-30812200D01*
X65127143Y-30812200D02*
X65079524Y-30764580D01*
X65079524Y-30764580D02*
X65031905Y-30669342D01*
X65031905Y-30669342D02*
X64984286Y-30478866D01*
X64984286Y-30478866D02*
X64984286Y-30240771D01*
X64984286Y-30240771D02*
X65031905Y-30050295D01*
X65031905Y-30050295D02*
X65079524Y-29955057D01*
X65079524Y-29955057D02*
X65127143Y-29907438D01*
X65127143Y-29907438D02*
X65222381Y-29859819D01*
X65889048Y-29859819D02*
X66555714Y-29859819D01*
X66555714Y-29859819D02*
X66127143Y-30859819D01*
X3453543Y-14479594D02*
X2460997Y-14357725D01*
X2460997Y-14357725D02*
X2490014Y-14121404D01*
X2490014Y-14121404D02*
X2554688Y-13985415D01*
X2554688Y-13985415D02*
X2660822Y-13902494D01*
X2660822Y-13902494D02*
X2761154Y-13866836D01*
X2761154Y-13866836D02*
X2956014Y-13842785D01*
X2956014Y-13842785D02*
X3097806Y-13860195D01*
X3097806Y-13860195D02*
X3281059Y-13930673D01*
X3281059Y-13930673D02*
X3369784Y-13989543D01*
X3369784Y-13989543D02*
X3452706Y-14095678D01*
X3452706Y-14095678D02*
X3482560Y-14243274D01*
X3482560Y-14243274D02*
X3453543Y-14479594D01*
X2965945Y-12980425D02*
X3627642Y-13061671D01*
X2558816Y-13170319D02*
X3238761Y-13493689D01*
X3238761Y-13493689D02*
X3314203Y-12879256D01*
X2722146Y-12230840D02*
X2733752Y-12136312D01*
X2733752Y-12136312D02*
X2792623Y-12047587D01*
X2792623Y-12047587D02*
X2845690Y-12006126D01*
X2845690Y-12006126D02*
X2946022Y-11970469D01*
X2946022Y-11970469D02*
X3140882Y-11946418D01*
X3140882Y-11946418D02*
X3377202Y-11975434D01*
X3377202Y-11975434D02*
X3560455Y-12045912D01*
X3560455Y-12045912D02*
X3649180Y-12104782D01*
X3649180Y-12104782D02*
X3690641Y-12157850D01*
X3690641Y-12157850D02*
X3726298Y-12258181D01*
X3726298Y-12258181D02*
X3714692Y-12352710D01*
X3714692Y-12352710D02*
X3655821Y-12441434D01*
X3655821Y-12441434D02*
X3602754Y-12482895D01*
X3602754Y-12482895D02*
X3502422Y-12518553D01*
X3502422Y-12518553D02*
X3307562Y-12542604D01*
X3307562Y-12542604D02*
X3071242Y-12513587D01*
X3071242Y-12513587D02*
X2887989Y-12443110D01*
X2887989Y-12443110D02*
X2799264Y-12384239D01*
X2799264Y-12384239D02*
X2757803Y-12331172D01*
X2757803Y-12331172D02*
X2722146Y-12230840D01*
X2867228Y-11049238D02*
X2844015Y-11238294D01*
X2844015Y-11238294D02*
X2879673Y-11338626D01*
X2879673Y-11338626D02*
X2921133Y-11391693D01*
X2921133Y-11391693D02*
X3051319Y-11503631D01*
X3051319Y-11503631D02*
X3234572Y-11574108D01*
X3234572Y-11574108D02*
X3612685Y-11620535D01*
X3612685Y-11620535D02*
X3713016Y-11584877D01*
X3713016Y-11584877D02*
X3766084Y-11543416D01*
X3766084Y-11543416D02*
X3824955Y-11454692D01*
X3824955Y-11454692D02*
X3848168Y-11265635D01*
X3848168Y-11265635D02*
X3812510Y-11165304D01*
X3812510Y-11165304D02*
X3771049Y-11112236D01*
X3771049Y-11112236D02*
X3682325Y-11053366D01*
X3682325Y-11053366D02*
X3446004Y-11024349D01*
X3446004Y-11024349D02*
X3345673Y-11060007D01*
X3345673Y-11060007D02*
X3292605Y-11101467D01*
X3292605Y-11101467D02*
X3233734Y-11190192D01*
X3233734Y-11190192D02*
X3210521Y-11379249D01*
X3210521Y-11379249D02*
X3246179Y-11479580D01*
X3246179Y-11479580D02*
X3287640Y-11532648D01*
X3287640Y-11532648D02*
X3376364Y-11591518D01*
X60539522Y-46174819D02*
X60539522Y-45174819D01*
X60539522Y-45174819D02*
X60777617Y-45174819D01*
X60777617Y-45174819D02*
X60920474Y-45222438D01*
X60920474Y-45222438D02*
X61015712Y-45317676D01*
X61015712Y-45317676D02*
X61063331Y-45412914D01*
X61063331Y-45412914D02*
X61110950Y-45603390D01*
X61110950Y-45603390D02*
X61110950Y-45746247D01*
X61110950Y-45746247D02*
X61063331Y-45936723D01*
X61063331Y-45936723D02*
X61015712Y-46031961D01*
X61015712Y-46031961D02*
X60920474Y-46127200D01*
X60920474Y-46127200D02*
X60777617Y-46174819D01*
X60777617Y-46174819D02*
X60539522Y-46174819D01*
X62015712Y-45174819D02*
X61539522Y-45174819D01*
X61539522Y-45174819D02*
X61491903Y-45651009D01*
X61491903Y-45651009D02*
X61539522Y-45603390D01*
X61539522Y-45603390D02*
X61634760Y-45555771D01*
X61634760Y-45555771D02*
X61872855Y-45555771D01*
X61872855Y-45555771D02*
X61968093Y-45603390D01*
X61968093Y-45603390D02*
X62015712Y-45651009D01*
X62015712Y-45651009D02*
X62063331Y-45746247D01*
X62063331Y-45746247D02*
X62063331Y-45984342D01*
X62063331Y-45984342D02*
X62015712Y-46079580D01*
X62015712Y-46079580D02*
X61968093Y-46127200D01*
X61968093Y-46127200D02*
X61872855Y-46174819D01*
X61872855Y-46174819D02*
X61634760Y-46174819D01*
X61634760Y-46174819D02*
X61539522Y-46127200D01*
X61539522Y-46127200D02*
X61491903Y-46079580D01*
X62682379Y-45174819D02*
X62777617Y-45174819D01*
X62777617Y-45174819D02*
X62872855Y-45222438D01*
X62872855Y-45222438D02*
X62920474Y-45270057D01*
X62920474Y-45270057D02*
X62968093Y-45365295D01*
X62968093Y-45365295D02*
X63015712Y-45555771D01*
X63015712Y-45555771D02*
X63015712Y-45793866D01*
X63015712Y-45793866D02*
X62968093Y-45984342D01*
X62968093Y-45984342D02*
X62920474Y-46079580D01*
X62920474Y-46079580D02*
X62872855Y-46127200D01*
X62872855Y-46127200D02*
X62777617Y-46174819D01*
X62777617Y-46174819D02*
X62682379Y-46174819D01*
X62682379Y-46174819D02*
X62587141Y-46127200D01*
X62587141Y-46127200D02*
X62539522Y-46079580D01*
X62539522Y-46079580D02*
X62491903Y-45984342D01*
X62491903Y-45984342D02*
X62444284Y-45793866D01*
X62444284Y-45793866D02*
X62444284Y-45555771D01*
X62444284Y-45555771D02*
X62491903Y-45365295D01*
X62491903Y-45365295D02*
X62539522Y-45270057D01*
X62539522Y-45270057D02*
X62587141Y-45222438D01*
X62587141Y-45222438D02*
X62682379Y-45174819D01*
X63872855Y-45508152D02*
X63872855Y-46174819D01*
X63634760Y-45127200D02*
X63396665Y-45841485D01*
X63396665Y-45841485D02*
X64015712Y-45841485D01*
X45914819Y-72930714D02*
X46629104Y-72930714D01*
X46629104Y-72930714D02*
X46771961Y-72978333D01*
X46771961Y-72978333D02*
X46867200Y-73073571D01*
X46867200Y-73073571D02*
X46914819Y-73216428D01*
X46914819Y-73216428D02*
X46914819Y-73311666D01*
X46914819Y-72454523D02*
X45914819Y-72454523D01*
X45914819Y-72454523D02*
X45914819Y-72073571D01*
X45914819Y-72073571D02*
X45962438Y-71978333D01*
X45962438Y-71978333D02*
X46010057Y-71930714D01*
X46010057Y-71930714D02*
X46105295Y-71883095D01*
X46105295Y-71883095D02*
X46248152Y-71883095D01*
X46248152Y-71883095D02*
X46343390Y-71930714D01*
X46343390Y-71930714D02*
X46391009Y-71978333D01*
X46391009Y-71978333D02*
X46438628Y-72073571D01*
X46438628Y-72073571D02*
X46438628Y-72454523D01*
X45914819Y-71549761D02*
X45914819Y-70930714D01*
X45914819Y-70930714D02*
X46295771Y-71264047D01*
X46295771Y-71264047D02*
X46295771Y-71121190D01*
X46295771Y-71121190D02*
X46343390Y-71025952D01*
X46343390Y-71025952D02*
X46391009Y-70978333D01*
X46391009Y-70978333D02*
X46486247Y-70930714D01*
X46486247Y-70930714D02*
X46724342Y-70930714D01*
X46724342Y-70930714D02*
X46819580Y-70978333D01*
X46819580Y-70978333D02*
X46867200Y-71025952D01*
X46867200Y-71025952D02*
X46914819Y-71121190D01*
X46914819Y-71121190D02*
X46914819Y-71406904D01*
X46914819Y-71406904D02*
X46867200Y-71502142D01*
X46867200Y-71502142D02*
X46819580Y-71549761D01*
X45914819Y-70311666D02*
X45914819Y-70216428D01*
X45914819Y-70216428D02*
X45962438Y-70121190D01*
X45962438Y-70121190D02*
X46010057Y-70073571D01*
X46010057Y-70073571D02*
X46105295Y-70025952D01*
X46105295Y-70025952D02*
X46295771Y-69978333D01*
X46295771Y-69978333D02*
X46533866Y-69978333D01*
X46533866Y-69978333D02*
X46724342Y-70025952D01*
X46724342Y-70025952D02*
X46819580Y-70073571D01*
X46819580Y-70073571D02*
X46867200Y-70121190D01*
X46867200Y-70121190D02*
X46914819Y-70216428D01*
X46914819Y-70216428D02*
X46914819Y-70311666D01*
X46914819Y-70311666D02*
X46867200Y-70406904D01*
X46867200Y-70406904D02*
X46819580Y-70454523D01*
X46819580Y-70454523D02*
X46724342Y-70502142D01*
X46724342Y-70502142D02*
X46533866Y-70549761D01*
X46533866Y-70549761D02*
X46295771Y-70549761D01*
X46295771Y-70549761D02*
X46105295Y-70502142D01*
X46105295Y-70502142D02*
X46010057Y-70454523D01*
X46010057Y-70454523D02*
X45962438Y-70406904D01*
X45962438Y-70406904D02*
X45914819Y-70311666D01*
X46914819Y-69025952D02*
X46914819Y-69597380D01*
X46914819Y-69311666D02*
X45914819Y-69311666D01*
X45914819Y-69311666D02*
X46057676Y-69406904D01*
X46057676Y-69406904D02*
X46152914Y-69502142D01*
X46152914Y-69502142D02*
X46200533Y-69597380D01*
X61154819Y-72930714D02*
X61869104Y-72930714D01*
X61869104Y-72930714D02*
X62011961Y-72978333D01*
X62011961Y-72978333D02*
X62107200Y-73073571D01*
X62107200Y-73073571D02*
X62154819Y-73216428D01*
X62154819Y-73216428D02*
X62154819Y-73311666D01*
X62154819Y-72454523D02*
X61154819Y-72454523D01*
X61154819Y-72454523D02*
X61154819Y-72073571D01*
X61154819Y-72073571D02*
X61202438Y-71978333D01*
X61202438Y-71978333D02*
X61250057Y-71930714D01*
X61250057Y-71930714D02*
X61345295Y-71883095D01*
X61345295Y-71883095D02*
X61488152Y-71883095D01*
X61488152Y-71883095D02*
X61583390Y-71930714D01*
X61583390Y-71930714D02*
X61631009Y-71978333D01*
X61631009Y-71978333D02*
X61678628Y-72073571D01*
X61678628Y-72073571D02*
X61678628Y-72454523D01*
X61154819Y-71549761D02*
X61154819Y-70930714D01*
X61154819Y-70930714D02*
X61535771Y-71264047D01*
X61535771Y-71264047D02*
X61535771Y-71121190D01*
X61535771Y-71121190D02*
X61583390Y-71025952D01*
X61583390Y-71025952D02*
X61631009Y-70978333D01*
X61631009Y-70978333D02*
X61726247Y-70930714D01*
X61726247Y-70930714D02*
X61964342Y-70930714D01*
X61964342Y-70930714D02*
X62059580Y-70978333D01*
X62059580Y-70978333D02*
X62107200Y-71025952D01*
X62107200Y-71025952D02*
X62154819Y-71121190D01*
X62154819Y-71121190D02*
X62154819Y-71406904D01*
X62154819Y-71406904D02*
X62107200Y-71502142D01*
X62107200Y-71502142D02*
X62059580Y-71549761D01*
X61154819Y-70311666D02*
X61154819Y-70216428D01*
X61154819Y-70216428D02*
X61202438Y-70121190D01*
X61202438Y-70121190D02*
X61250057Y-70073571D01*
X61250057Y-70073571D02*
X61345295Y-70025952D01*
X61345295Y-70025952D02*
X61535771Y-69978333D01*
X61535771Y-69978333D02*
X61773866Y-69978333D01*
X61773866Y-69978333D02*
X61964342Y-70025952D01*
X61964342Y-70025952D02*
X62059580Y-70073571D01*
X62059580Y-70073571D02*
X62107200Y-70121190D01*
X62107200Y-70121190D02*
X62154819Y-70216428D01*
X62154819Y-70216428D02*
X62154819Y-70311666D01*
X62154819Y-70311666D02*
X62107200Y-70406904D01*
X62107200Y-70406904D02*
X62059580Y-70454523D01*
X62059580Y-70454523D02*
X61964342Y-70502142D01*
X61964342Y-70502142D02*
X61773866Y-70549761D01*
X61773866Y-70549761D02*
X61535771Y-70549761D01*
X61535771Y-70549761D02*
X61345295Y-70502142D01*
X61345295Y-70502142D02*
X61250057Y-70454523D01*
X61250057Y-70454523D02*
X61202438Y-70406904D01*
X61202438Y-70406904D02*
X61154819Y-70311666D01*
X61488152Y-69121190D02*
X62154819Y-69121190D01*
X61107200Y-69359285D02*
X61821485Y-69597380D01*
X61821485Y-69597380D02*
X61821485Y-68978333D01*
X50994819Y-72930714D02*
X51709104Y-72930714D01*
X51709104Y-72930714D02*
X51851961Y-72978333D01*
X51851961Y-72978333D02*
X51947200Y-73073571D01*
X51947200Y-73073571D02*
X51994819Y-73216428D01*
X51994819Y-73216428D02*
X51994819Y-73311666D01*
X51994819Y-72454523D02*
X50994819Y-72454523D01*
X50994819Y-72454523D02*
X50994819Y-72073571D01*
X50994819Y-72073571D02*
X51042438Y-71978333D01*
X51042438Y-71978333D02*
X51090057Y-71930714D01*
X51090057Y-71930714D02*
X51185295Y-71883095D01*
X51185295Y-71883095D02*
X51328152Y-71883095D01*
X51328152Y-71883095D02*
X51423390Y-71930714D01*
X51423390Y-71930714D02*
X51471009Y-71978333D01*
X51471009Y-71978333D02*
X51518628Y-72073571D01*
X51518628Y-72073571D02*
X51518628Y-72454523D01*
X50994819Y-71549761D02*
X50994819Y-70930714D01*
X50994819Y-70930714D02*
X51375771Y-71264047D01*
X51375771Y-71264047D02*
X51375771Y-71121190D01*
X51375771Y-71121190D02*
X51423390Y-71025952D01*
X51423390Y-71025952D02*
X51471009Y-70978333D01*
X51471009Y-70978333D02*
X51566247Y-70930714D01*
X51566247Y-70930714D02*
X51804342Y-70930714D01*
X51804342Y-70930714D02*
X51899580Y-70978333D01*
X51899580Y-70978333D02*
X51947200Y-71025952D01*
X51947200Y-71025952D02*
X51994819Y-71121190D01*
X51994819Y-71121190D02*
X51994819Y-71406904D01*
X51994819Y-71406904D02*
X51947200Y-71502142D01*
X51947200Y-71502142D02*
X51899580Y-71549761D01*
X50994819Y-70311666D02*
X50994819Y-70216428D01*
X50994819Y-70216428D02*
X51042438Y-70121190D01*
X51042438Y-70121190D02*
X51090057Y-70073571D01*
X51090057Y-70073571D02*
X51185295Y-70025952D01*
X51185295Y-70025952D02*
X51375771Y-69978333D01*
X51375771Y-69978333D02*
X51613866Y-69978333D01*
X51613866Y-69978333D02*
X51804342Y-70025952D01*
X51804342Y-70025952D02*
X51899580Y-70073571D01*
X51899580Y-70073571D02*
X51947200Y-70121190D01*
X51947200Y-70121190D02*
X51994819Y-70216428D01*
X51994819Y-70216428D02*
X51994819Y-70311666D01*
X51994819Y-70311666D02*
X51947200Y-70406904D01*
X51947200Y-70406904D02*
X51899580Y-70454523D01*
X51899580Y-70454523D02*
X51804342Y-70502142D01*
X51804342Y-70502142D02*
X51613866Y-70549761D01*
X51613866Y-70549761D02*
X51375771Y-70549761D01*
X51375771Y-70549761D02*
X51185295Y-70502142D01*
X51185295Y-70502142D02*
X51090057Y-70454523D01*
X51090057Y-70454523D02*
X51042438Y-70406904D01*
X51042438Y-70406904D02*
X50994819Y-70311666D01*
X51090057Y-69597380D02*
X51042438Y-69549761D01*
X51042438Y-69549761D02*
X50994819Y-69454523D01*
X50994819Y-69454523D02*
X50994819Y-69216428D01*
X50994819Y-69216428D02*
X51042438Y-69121190D01*
X51042438Y-69121190D02*
X51090057Y-69073571D01*
X51090057Y-69073571D02*
X51185295Y-69025952D01*
X51185295Y-69025952D02*
X51280533Y-69025952D01*
X51280533Y-69025952D02*
X51423390Y-69073571D01*
X51423390Y-69073571D02*
X51994819Y-69644999D01*
X51994819Y-69644999D02*
X51994819Y-69025952D01*
X71473543Y-39879594D02*
X70480997Y-39757725D01*
X70480997Y-39757725D02*
X70510014Y-39521404D01*
X70510014Y-39521404D02*
X70574688Y-39385415D01*
X70574688Y-39385415D02*
X70680822Y-39302494D01*
X70680822Y-39302494D02*
X70781154Y-39266836D01*
X70781154Y-39266836D02*
X70976014Y-39242785D01*
X70976014Y-39242785D02*
X71117806Y-39260195D01*
X71117806Y-39260195D02*
X71301059Y-39330673D01*
X71301059Y-39330673D02*
X71389784Y-39389543D01*
X71389784Y-39389543D02*
X71472706Y-39495678D01*
X71472706Y-39495678D02*
X71502560Y-39643274D01*
X71502560Y-39643274D02*
X71473543Y-39879594D01*
X70660899Y-38292538D02*
X70602866Y-38765179D01*
X70602866Y-38765179D02*
X71069704Y-38870476D01*
X71069704Y-38870476D02*
X71028243Y-38817408D01*
X71028243Y-38817408D02*
X70992586Y-38717077D01*
X70992586Y-38717077D02*
X71021602Y-38480756D01*
X71021602Y-38480756D02*
X71080473Y-38392032D01*
X71080473Y-38392032D02*
X71133540Y-38350571D01*
X71133540Y-38350571D02*
X71233872Y-38314913D01*
X71233872Y-38314913D02*
X71470192Y-38343930D01*
X71470192Y-38343930D02*
X71558917Y-38402800D01*
X71558917Y-38402800D02*
X71600378Y-38455868D01*
X71600378Y-38455868D02*
X71636036Y-38556199D01*
X71636036Y-38556199D02*
X71607019Y-38792520D01*
X71607019Y-38792520D02*
X71548148Y-38881245D01*
X71548148Y-38881245D02*
X71495081Y-38922706D01*
X70742146Y-37630840D02*
X70753752Y-37536312D01*
X70753752Y-37536312D02*
X70812623Y-37447587D01*
X70812623Y-37447587D02*
X70865690Y-37406126D01*
X70865690Y-37406126D02*
X70966022Y-37370469D01*
X70966022Y-37370469D02*
X71160882Y-37346418D01*
X71160882Y-37346418D02*
X71397202Y-37375434D01*
X71397202Y-37375434D02*
X71580455Y-37445912D01*
X71580455Y-37445912D02*
X71669180Y-37504782D01*
X71669180Y-37504782D02*
X71710641Y-37557850D01*
X71710641Y-37557850D02*
X71746298Y-37658181D01*
X71746298Y-37658181D02*
X71734692Y-37752710D01*
X71734692Y-37752710D02*
X71675821Y-37841434D01*
X71675821Y-37841434D02*
X71622754Y-37882895D01*
X71622754Y-37882895D02*
X71522422Y-37918553D01*
X71522422Y-37918553D02*
X71327562Y-37942604D01*
X71327562Y-37942604D02*
X71091242Y-37913587D01*
X71091242Y-37913587D02*
X70907989Y-37843110D01*
X70907989Y-37843110D02*
X70819264Y-37784239D01*
X70819264Y-37784239D02*
X70777803Y-37731172D01*
X70777803Y-37731172D02*
X70742146Y-37630840D01*
X70823392Y-36969143D02*
X70898835Y-36354709D01*
X70898835Y-36354709D02*
X71236325Y-36731985D01*
X71236325Y-36731985D02*
X71253734Y-36590192D01*
X71253734Y-36590192D02*
X71312605Y-36501467D01*
X71312605Y-36501467D02*
X71365673Y-36460007D01*
X71365673Y-36460007D02*
X71466004Y-36424349D01*
X71466004Y-36424349D02*
X71702325Y-36453366D01*
X71702325Y-36453366D02*
X71791049Y-36512236D01*
X71791049Y-36512236D02*
X71832510Y-36565304D01*
X71832510Y-36565304D02*
X71868168Y-36665635D01*
X71868168Y-36665635D02*
X71833348Y-36949220D01*
X71833348Y-36949220D02*
X71774477Y-37037945D01*
X71774477Y-37037945D02*
X71721410Y-37079405D01*
X27944819Y-72930714D02*
X28659104Y-72930714D01*
X28659104Y-72930714D02*
X28801961Y-72978333D01*
X28801961Y-72978333D02*
X28897200Y-73073571D01*
X28897200Y-73073571D02*
X28944819Y-73216428D01*
X28944819Y-73216428D02*
X28944819Y-73311666D01*
X28944819Y-72454523D02*
X27944819Y-72454523D01*
X27944819Y-72454523D02*
X27944819Y-72073571D01*
X27944819Y-72073571D02*
X27992438Y-71978333D01*
X27992438Y-71978333D02*
X28040057Y-71930714D01*
X28040057Y-71930714D02*
X28135295Y-71883095D01*
X28135295Y-71883095D02*
X28278152Y-71883095D01*
X28278152Y-71883095D02*
X28373390Y-71930714D01*
X28373390Y-71930714D02*
X28421009Y-71978333D01*
X28421009Y-71978333D02*
X28468628Y-72073571D01*
X28468628Y-72073571D02*
X28468628Y-72454523D01*
X28040057Y-71502142D02*
X27992438Y-71454523D01*
X27992438Y-71454523D02*
X27944819Y-71359285D01*
X27944819Y-71359285D02*
X27944819Y-71121190D01*
X27944819Y-71121190D02*
X27992438Y-71025952D01*
X27992438Y-71025952D02*
X28040057Y-70978333D01*
X28040057Y-70978333D02*
X28135295Y-70930714D01*
X28135295Y-70930714D02*
X28230533Y-70930714D01*
X28230533Y-70930714D02*
X28373390Y-70978333D01*
X28373390Y-70978333D02*
X28944819Y-71549761D01*
X28944819Y-71549761D02*
X28944819Y-70930714D01*
X27944819Y-70311666D02*
X27944819Y-70216428D01*
X27944819Y-70216428D02*
X27992438Y-70121190D01*
X27992438Y-70121190D02*
X28040057Y-70073571D01*
X28040057Y-70073571D02*
X28135295Y-70025952D01*
X28135295Y-70025952D02*
X28325771Y-69978333D01*
X28325771Y-69978333D02*
X28563866Y-69978333D01*
X28563866Y-69978333D02*
X28754342Y-70025952D01*
X28754342Y-70025952D02*
X28849580Y-70073571D01*
X28849580Y-70073571D02*
X28897200Y-70121190D01*
X28897200Y-70121190D02*
X28944819Y-70216428D01*
X28944819Y-70216428D02*
X28944819Y-70311666D01*
X28944819Y-70311666D02*
X28897200Y-70406904D01*
X28897200Y-70406904D02*
X28849580Y-70454523D01*
X28849580Y-70454523D02*
X28754342Y-70502142D01*
X28754342Y-70502142D02*
X28563866Y-70549761D01*
X28563866Y-70549761D02*
X28325771Y-70549761D01*
X28325771Y-70549761D02*
X28135295Y-70502142D01*
X28135295Y-70502142D02*
X28040057Y-70454523D01*
X28040057Y-70454523D02*
X27992438Y-70406904D01*
X27992438Y-70406904D02*
X27944819Y-70311666D01*
X27944819Y-69121190D02*
X27944819Y-69311666D01*
X27944819Y-69311666D02*
X27992438Y-69406904D01*
X27992438Y-69406904D02*
X28040057Y-69454523D01*
X28040057Y-69454523D02*
X28182914Y-69549761D01*
X28182914Y-69549761D02*
X28373390Y-69597380D01*
X28373390Y-69597380D02*
X28754342Y-69597380D01*
X28754342Y-69597380D02*
X28849580Y-69549761D01*
X28849580Y-69549761D02*
X28897200Y-69502142D01*
X28897200Y-69502142D02*
X28944819Y-69406904D01*
X28944819Y-69406904D02*
X28944819Y-69216428D01*
X28944819Y-69216428D02*
X28897200Y-69121190D01*
X28897200Y-69121190D02*
X28849580Y-69073571D01*
X28849580Y-69073571D02*
X28754342Y-69025952D01*
X28754342Y-69025952D02*
X28516247Y-69025952D01*
X28516247Y-69025952D02*
X28421009Y-69073571D01*
X28421009Y-69073571D02*
X28373390Y-69121190D01*
X28373390Y-69121190D02*
X28325771Y-69216428D01*
X28325771Y-69216428D02*
X28325771Y-69406904D01*
X28325771Y-69406904D02*
X28373390Y-69502142D01*
X28373390Y-69502142D02*
X28421009Y-69549761D01*
X28421009Y-69549761D02*
X28516247Y-69597380D01*
X16557524Y-30859819D02*
X16557524Y-29859819D01*
X16557524Y-29859819D02*
X16795619Y-29859819D01*
X16795619Y-29859819D02*
X16938476Y-29907438D01*
X16938476Y-29907438D02*
X17033714Y-30002676D01*
X17033714Y-30002676D02*
X17081333Y-30097914D01*
X17081333Y-30097914D02*
X17128952Y-30288390D01*
X17128952Y-30288390D02*
X17128952Y-30431247D01*
X17128952Y-30431247D02*
X17081333Y-30621723D01*
X17081333Y-30621723D02*
X17033714Y-30716961D01*
X17033714Y-30716961D02*
X16938476Y-30812200D01*
X16938476Y-30812200D02*
X16795619Y-30859819D01*
X16795619Y-30859819D02*
X16557524Y-30859819D01*
X17986095Y-30193152D02*
X17986095Y-30859819D01*
X17748000Y-29812200D02*
X17509905Y-30526485D01*
X17509905Y-30526485D02*
X18128952Y-30526485D01*
X18700381Y-29859819D02*
X18795619Y-29859819D01*
X18795619Y-29859819D02*
X18890857Y-29907438D01*
X18890857Y-29907438D02*
X18938476Y-29955057D01*
X18938476Y-29955057D02*
X18986095Y-30050295D01*
X18986095Y-30050295D02*
X19033714Y-30240771D01*
X19033714Y-30240771D02*
X19033714Y-30478866D01*
X19033714Y-30478866D02*
X18986095Y-30669342D01*
X18986095Y-30669342D02*
X18938476Y-30764580D01*
X18938476Y-30764580D02*
X18890857Y-30812200D01*
X18890857Y-30812200D02*
X18795619Y-30859819D01*
X18795619Y-30859819D02*
X18700381Y-30859819D01*
X18700381Y-30859819D02*
X18605143Y-30812200D01*
X18605143Y-30812200D02*
X18557524Y-30764580D01*
X18557524Y-30764580D02*
X18509905Y-30669342D01*
X18509905Y-30669342D02*
X18462286Y-30478866D01*
X18462286Y-30478866D02*
X18462286Y-30240771D01*
X18462286Y-30240771D02*
X18509905Y-30050295D01*
X18509905Y-30050295D02*
X18557524Y-29955057D01*
X18557524Y-29955057D02*
X18605143Y-29907438D01*
X18605143Y-29907438D02*
X18700381Y-29859819D01*
X19367048Y-29859819D02*
X20033714Y-29859819D01*
X20033714Y-29859819D02*
X19605143Y-30859819D01*
X45596243Y-39244594D02*
X44603697Y-39122725D01*
X44603697Y-39122725D02*
X44632714Y-38886404D01*
X44632714Y-38886404D02*
X44697388Y-38750415D01*
X44697388Y-38750415D02*
X44803522Y-38667494D01*
X44803522Y-38667494D02*
X44903854Y-38631836D01*
X44903854Y-38631836D02*
X45098714Y-38607785D01*
X45098714Y-38607785D02*
X45240506Y-38625195D01*
X45240506Y-38625195D02*
X45423759Y-38695673D01*
X45423759Y-38695673D02*
X45512484Y-38754543D01*
X45512484Y-38754543D02*
X45595406Y-38860678D01*
X45595406Y-38860678D02*
X45625260Y-39008274D01*
X45625260Y-39008274D02*
X45596243Y-39244594D01*
X44783599Y-37657538D02*
X44725566Y-38130179D01*
X44725566Y-38130179D02*
X45192404Y-38235476D01*
X45192404Y-38235476D02*
X45150943Y-38182408D01*
X45150943Y-38182408D02*
X45115286Y-38082077D01*
X45115286Y-38082077D02*
X45144302Y-37845756D01*
X45144302Y-37845756D02*
X45203173Y-37757032D01*
X45203173Y-37757032D02*
X45256240Y-37715571D01*
X45256240Y-37715571D02*
X45356572Y-37679913D01*
X45356572Y-37679913D02*
X45592892Y-37708930D01*
X45592892Y-37708930D02*
X45681617Y-37767800D01*
X45681617Y-37767800D02*
X45723078Y-37820868D01*
X45723078Y-37820868D02*
X45758736Y-37921199D01*
X45758736Y-37921199D02*
X45729719Y-38157520D01*
X45729719Y-38157520D02*
X45670848Y-38246245D01*
X45670848Y-38246245D02*
X45617781Y-38287706D01*
X44864846Y-36995840D02*
X44876452Y-36901312D01*
X44876452Y-36901312D02*
X44935323Y-36812587D01*
X44935323Y-36812587D02*
X44988390Y-36771126D01*
X44988390Y-36771126D02*
X45088722Y-36735469D01*
X45088722Y-36735469D02*
X45283582Y-36711418D01*
X45283582Y-36711418D02*
X45519902Y-36740434D01*
X45519902Y-36740434D02*
X45703155Y-36810912D01*
X45703155Y-36810912D02*
X45791880Y-36869782D01*
X45791880Y-36869782D02*
X45833341Y-36922850D01*
X45833341Y-36922850D02*
X45868998Y-37023181D01*
X45868998Y-37023181D02*
X45857392Y-37117710D01*
X45857392Y-37117710D02*
X45798521Y-37206434D01*
X45798521Y-37206434D02*
X45745454Y-37247895D01*
X45745454Y-37247895D02*
X45645122Y-37283553D01*
X45645122Y-37283553D02*
X45450262Y-37307604D01*
X45450262Y-37307604D02*
X45213942Y-37278587D01*
X45213942Y-37278587D02*
X45030689Y-37208110D01*
X45030689Y-37208110D02*
X44941964Y-37149239D01*
X44941964Y-37149239D02*
X44900503Y-37096172D01*
X44900503Y-37096172D02*
X44864846Y-36995840D01*
X45015732Y-35766973D02*
X44957699Y-36239615D01*
X44957699Y-36239615D02*
X45424536Y-36344912D01*
X45424536Y-36344912D02*
X45383075Y-36291844D01*
X45383075Y-36291844D02*
X45347418Y-36191513D01*
X45347418Y-36191513D02*
X45376434Y-35955192D01*
X45376434Y-35955192D02*
X45435305Y-35866467D01*
X45435305Y-35866467D02*
X45488373Y-35825007D01*
X45488373Y-35825007D02*
X45588704Y-35789349D01*
X45588704Y-35789349D02*
X45825025Y-35818366D01*
X45825025Y-35818366D02*
X45913749Y-35877236D01*
X45913749Y-35877236D02*
X45955210Y-35930304D01*
X45955210Y-35930304D02*
X45990868Y-36030635D01*
X45990868Y-36030635D02*
X45961851Y-36266956D01*
X45961851Y-36266956D02*
X45902981Y-36355681D01*
X45902981Y-36355681D02*
X45849913Y-36397141D01*
X7624819Y-72930714D02*
X8339104Y-72930714D01*
X8339104Y-72930714D02*
X8481961Y-72978333D01*
X8481961Y-72978333D02*
X8577200Y-73073571D01*
X8577200Y-73073571D02*
X8624819Y-73216428D01*
X8624819Y-73216428D02*
X8624819Y-73311666D01*
X8624819Y-72454523D02*
X7624819Y-72454523D01*
X7624819Y-72454523D02*
X7624819Y-72073571D01*
X7624819Y-72073571D02*
X7672438Y-71978333D01*
X7672438Y-71978333D02*
X7720057Y-71930714D01*
X7720057Y-71930714D02*
X7815295Y-71883095D01*
X7815295Y-71883095D02*
X7958152Y-71883095D01*
X7958152Y-71883095D02*
X8053390Y-71930714D01*
X8053390Y-71930714D02*
X8101009Y-71978333D01*
X8101009Y-71978333D02*
X8148628Y-72073571D01*
X8148628Y-72073571D02*
X8148628Y-72454523D01*
X7720057Y-71502142D02*
X7672438Y-71454523D01*
X7672438Y-71454523D02*
X7624819Y-71359285D01*
X7624819Y-71359285D02*
X7624819Y-71121190D01*
X7624819Y-71121190D02*
X7672438Y-71025952D01*
X7672438Y-71025952D02*
X7720057Y-70978333D01*
X7720057Y-70978333D02*
X7815295Y-70930714D01*
X7815295Y-70930714D02*
X7910533Y-70930714D01*
X7910533Y-70930714D02*
X8053390Y-70978333D01*
X8053390Y-70978333D02*
X8624819Y-71549761D01*
X8624819Y-71549761D02*
X8624819Y-70930714D01*
X7624819Y-70311666D02*
X7624819Y-70216428D01*
X7624819Y-70216428D02*
X7672438Y-70121190D01*
X7672438Y-70121190D02*
X7720057Y-70073571D01*
X7720057Y-70073571D02*
X7815295Y-70025952D01*
X7815295Y-70025952D02*
X8005771Y-69978333D01*
X8005771Y-69978333D02*
X8243866Y-69978333D01*
X8243866Y-69978333D02*
X8434342Y-70025952D01*
X8434342Y-70025952D02*
X8529580Y-70073571D01*
X8529580Y-70073571D02*
X8577200Y-70121190D01*
X8577200Y-70121190D02*
X8624819Y-70216428D01*
X8624819Y-70216428D02*
X8624819Y-70311666D01*
X8624819Y-70311666D02*
X8577200Y-70406904D01*
X8577200Y-70406904D02*
X8529580Y-70454523D01*
X8529580Y-70454523D02*
X8434342Y-70502142D01*
X8434342Y-70502142D02*
X8243866Y-70549761D01*
X8243866Y-70549761D02*
X8005771Y-70549761D01*
X8005771Y-70549761D02*
X7815295Y-70502142D01*
X7815295Y-70502142D02*
X7720057Y-70454523D01*
X7720057Y-70454523D02*
X7672438Y-70406904D01*
X7672438Y-70406904D02*
X7624819Y-70311666D01*
X7720057Y-69597380D02*
X7672438Y-69549761D01*
X7672438Y-69549761D02*
X7624819Y-69454523D01*
X7624819Y-69454523D02*
X7624819Y-69216428D01*
X7624819Y-69216428D02*
X7672438Y-69121190D01*
X7672438Y-69121190D02*
X7720057Y-69073571D01*
X7720057Y-69073571D02*
X7815295Y-69025952D01*
X7815295Y-69025952D02*
X7910533Y-69025952D01*
X7910533Y-69025952D02*
X8053390Y-69073571D01*
X8053390Y-69073571D02*
X8624819Y-69644999D01*
X8624819Y-69644999D02*
X8624819Y-69025952D01*
X71314819Y-72930714D02*
X72029104Y-72930714D01*
X72029104Y-72930714D02*
X72171961Y-72978333D01*
X72171961Y-72978333D02*
X72267200Y-73073571D01*
X72267200Y-73073571D02*
X72314819Y-73216428D01*
X72314819Y-73216428D02*
X72314819Y-73311666D01*
X72314819Y-72454523D02*
X71314819Y-72454523D01*
X71314819Y-72454523D02*
X71314819Y-72073571D01*
X71314819Y-72073571D02*
X71362438Y-71978333D01*
X71362438Y-71978333D02*
X71410057Y-71930714D01*
X71410057Y-71930714D02*
X71505295Y-71883095D01*
X71505295Y-71883095D02*
X71648152Y-71883095D01*
X71648152Y-71883095D02*
X71743390Y-71930714D01*
X71743390Y-71930714D02*
X71791009Y-71978333D01*
X71791009Y-71978333D02*
X71838628Y-72073571D01*
X71838628Y-72073571D02*
X71838628Y-72454523D01*
X71314819Y-71549761D02*
X71314819Y-70930714D01*
X71314819Y-70930714D02*
X71695771Y-71264047D01*
X71695771Y-71264047D02*
X71695771Y-71121190D01*
X71695771Y-71121190D02*
X71743390Y-71025952D01*
X71743390Y-71025952D02*
X71791009Y-70978333D01*
X71791009Y-70978333D02*
X71886247Y-70930714D01*
X71886247Y-70930714D02*
X72124342Y-70930714D01*
X72124342Y-70930714D02*
X72219580Y-70978333D01*
X72219580Y-70978333D02*
X72267200Y-71025952D01*
X72267200Y-71025952D02*
X72314819Y-71121190D01*
X72314819Y-71121190D02*
X72314819Y-71406904D01*
X72314819Y-71406904D02*
X72267200Y-71502142D01*
X72267200Y-71502142D02*
X72219580Y-71549761D01*
X71314819Y-70311666D02*
X71314819Y-70216428D01*
X71314819Y-70216428D02*
X71362438Y-70121190D01*
X71362438Y-70121190D02*
X71410057Y-70073571D01*
X71410057Y-70073571D02*
X71505295Y-70025952D01*
X71505295Y-70025952D02*
X71695771Y-69978333D01*
X71695771Y-69978333D02*
X71933866Y-69978333D01*
X71933866Y-69978333D02*
X72124342Y-70025952D01*
X72124342Y-70025952D02*
X72219580Y-70073571D01*
X72219580Y-70073571D02*
X72267200Y-70121190D01*
X72267200Y-70121190D02*
X72314819Y-70216428D01*
X72314819Y-70216428D02*
X72314819Y-70311666D01*
X72314819Y-70311666D02*
X72267200Y-70406904D01*
X72267200Y-70406904D02*
X72219580Y-70454523D01*
X72219580Y-70454523D02*
X72124342Y-70502142D01*
X72124342Y-70502142D02*
X71933866Y-70549761D01*
X71933866Y-70549761D02*
X71695771Y-70549761D01*
X71695771Y-70549761D02*
X71505295Y-70502142D01*
X71505295Y-70502142D02*
X71410057Y-70454523D01*
X71410057Y-70454523D02*
X71362438Y-70406904D01*
X71362438Y-70406904D02*
X71314819Y-70311666D01*
X71314819Y-69121190D02*
X71314819Y-69311666D01*
X71314819Y-69311666D02*
X71362438Y-69406904D01*
X71362438Y-69406904D02*
X71410057Y-69454523D01*
X71410057Y-69454523D02*
X71552914Y-69549761D01*
X71552914Y-69549761D02*
X71743390Y-69597380D01*
X71743390Y-69597380D02*
X72124342Y-69597380D01*
X72124342Y-69597380D02*
X72219580Y-69549761D01*
X72219580Y-69549761D02*
X72267200Y-69502142D01*
X72267200Y-69502142D02*
X72314819Y-69406904D01*
X72314819Y-69406904D02*
X72314819Y-69216428D01*
X72314819Y-69216428D02*
X72267200Y-69121190D01*
X72267200Y-69121190D02*
X72219580Y-69073571D01*
X72219580Y-69073571D02*
X72124342Y-69025952D01*
X72124342Y-69025952D02*
X71886247Y-69025952D01*
X71886247Y-69025952D02*
X71791009Y-69073571D01*
X71791009Y-69073571D02*
X71743390Y-69121190D01*
X71743390Y-69121190D02*
X71695771Y-69216428D01*
X71695771Y-69216428D02*
X71695771Y-69406904D01*
X71695771Y-69406904D02*
X71743390Y-69502142D01*
X71743390Y-69502142D02*
X71791009Y-69549761D01*
X71791009Y-69549761D02*
X71886247Y-69597380D01*
D11*
X15350000Y-72545000D02*
X14750000Y-72545000D01*
X14050000Y-71845000D02*
X14050000Y-70445000D01*
X16050000Y-70445000D02*
X16050000Y-71845000D01*
X14750000Y-69745000D02*
X15350000Y-69745000D01*
X14050000Y-71845000D02*
G75*
G03*
X14750000Y-72545000I699999J-1D01*
G01*
X15350000Y-72545000D02*
G75*
G03*
X16050000Y-71845000I1J699999D01*
G01*
X14750000Y-69745000D02*
G75*
G03*
X14050000Y-70445000I0J-700000D01*
G01*
X16050000Y-70445000D02*
G75*
G03*
X15350000Y-69745000I-700000J0D01*
G01*
X25510000Y-72545000D02*
X24910000Y-72545000D01*
X24210000Y-71845000D02*
X24210000Y-70445000D01*
X26210000Y-70445000D02*
X26210000Y-71845000D01*
X24910000Y-69745000D02*
X25510000Y-69745000D01*
X24210000Y-71845000D02*
G75*
G03*
X24910000Y-72545000I699999J-1D01*
G01*
X25510000Y-72545000D02*
G75*
G03*
X26210000Y-71845000I1J699999D01*
G01*
X24910000Y-69745000D02*
G75*
G03*
X24210000Y-70445000I0J-700000D01*
G01*
X26210000Y-70445000D02*
G75*
G03*
X25510000Y-69745000I-700000J0D01*
G01*
X79040000Y-72545000D02*
X78440000Y-72545000D01*
X77740000Y-71845000D02*
X77740000Y-70445000D01*
X79740000Y-70445000D02*
X79740000Y-71845000D01*
X78440000Y-69745000D02*
X79040000Y-69745000D01*
X77740000Y-71845000D02*
G75*
G03*
X78440000Y-72545000I699999J-1D01*
G01*
X79040000Y-72545000D02*
G75*
G03*
X79740000Y-71845000I1J699999D01*
G01*
X78440000Y-69745000D02*
G75*
G03*
X77740000Y-70445000I0J-700000D01*
G01*
X79740000Y-70445000D02*
G75*
G03*
X79040000Y-69745000I-700000J0D01*
G01*
X35670000Y-72545000D02*
X35070000Y-72545000D01*
X34370000Y-71845000D02*
X34370000Y-70445000D01*
X36370000Y-70445000D02*
X36370000Y-71845000D01*
X35070000Y-69745000D02*
X35670000Y-69745000D01*
X34370000Y-71845000D02*
G75*
G03*
X35070000Y-72545000I699999J-1D01*
G01*
X35670000Y-72545000D02*
G75*
G03*
X36370000Y-71845000I1J699999D01*
G01*
X35070000Y-69745000D02*
G75*
G03*
X34370000Y-70445000I0J-700000D01*
G01*
X36370000Y-70445000D02*
G75*
G03*
X35670000Y-69745000I-700000J0D01*
G01*
X31359002Y-3570000D02*
X31359002Y-480000D01*
X24149998Y-3570000D02*
X24149998Y-480000D01*
X17389002Y-3495000D02*
X17389002Y-405000D01*
X25809003Y-2024538D02*
G75*
G03*
X31359001Y-3569830I2989999J-462D01*
G01*
X31359002Y-480170D02*
G75*
G03*
X25809002Y-2025462I-2560000J-1544830D01*
G01*
X18599999Y-2024538D02*
G75*
G03*
X24149997Y-3569830I2989999J-462D01*
G01*
X24149998Y-480170D02*
G75*
G03*
X18599998Y-2025462I-2560000J-1544830D01*
G01*
X11838999Y-1949538D02*
G75*
G03*
X17389001Y-3494830I2990001J-462D01*
G01*
X17388999Y-405172D02*
G75*
G03*
X11839002Y-1950462I-2559999J-1544828D01*
G01*
X31299002Y-2025000D02*
G75*
G03*
X31299002Y-2025000I-2500000J0D01*
G01*
X24089998Y-2025000D02*
G75*
G03*
X24089998Y-2025000I-2500000J0D01*
G01*
X17329002Y-1950000D02*
G75*
G03*
X17329002Y-1950000I-2500000J0D01*
G01*
X919680Y-47084182D02*
X3986648Y-47460758D01*
X1798237Y-39928913D02*
X4865204Y-40305489D01*
X2696636Y-33227452D02*
X5763603Y-33604029D01*
X3129997Y-41763896D02*
G75*
G03*
X919849Y-47084202I-364848J-2967656D01*
G01*
X3986479Y-47460736D02*
G75*
G03*
X3129080Y-41763784I-1221330J2729184D01*
G01*
X4008554Y-34608627D02*
G75*
G03*
X1798405Y-39928933I-364848J-2967656D01*
G01*
X4865035Y-40305469D02*
G75*
G03*
X4007637Y-34608514I-1221329J2729186D01*
G01*
X4906953Y-27907162D02*
G75*
G03*
X2696805Y-33227472I-364848J-2967658D01*
G01*
X5763432Y-33604003D02*
G75*
G03*
X4906036Y-27907054I-1221327J2729183D01*
G01*
X5265150Y-44731552D02*
G75*
G03*
X5265150Y-44731552I-2500001J0D01*
G01*
X6143707Y-37576283D02*
G75*
G03*
X6143707Y-37576283I-2500001J0D01*
G01*
X7042105Y-30874822D02*
G75*
G03*
X7042105Y-30874822I-2500000J0D01*
G01*
X58720000Y-72570000D02*
X58120000Y-72570000D01*
X57420000Y-71870000D02*
X57420000Y-70470000D01*
X59420000Y-70470000D02*
X59420000Y-71870000D01*
X58120000Y-69770000D02*
X58720000Y-69770000D01*
X57420000Y-71870000D02*
G75*
G03*
X58120000Y-72570000I699999J-1D01*
G01*
X58720000Y-72570000D02*
G75*
G03*
X59420000Y-71870000I1J699999D01*
G01*
X58120000Y-69770000D02*
G75*
G03*
X57420000Y-70470000I0J-700000D01*
G01*
X59420000Y-70470000D02*
G75*
G03*
X58720000Y-69770000I-700000J0D01*
G01*
X77079002Y-3570000D02*
X77079002Y-480000D01*
X69869998Y-3570000D02*
X69869998Y-480000D01*
X63109002Y-3495000D02*
X63109002Y-405000D01*
X71529003Y-2024538D02*
G75*
G03*
X77079001Y-3569830I2989999J-462D01*
G01*
X77079002Y-480170D02*
G75*
G03*
X71529002Y-2025462I-2560000J-1544830D01*
G01*
X64319999Y-2024538D02*
G75*
G03*
X69869997Y-3569830I2989999J-462D01*
G01*
X69869998Y-480170D02*
G75*
G03*
X64319998Y-2025462I-2560000J-1544830D01*
G01*
X57558999Y-1949538D02*
G75*
G03*
X63109001Y-3494830I2990001J-462D01*
G01*
X63108999Y-405172D02*
G75*
G03*
X57559002Y-1950462I-2559999J-1544828D01*
G01*
X77019002Y-2025000D02*
G75*
G03*
X77019002Y-2025000I-2500000J0D01*
G01*
X69809998Y-2025000D02*
G75*
G03*
X69809998Y-2025000I-2500000J0D01*
G01*
X63049002Y-1950000D02*
G75*
G03*
X63049002Y-1950000I-2500000J0D01*
G01*
X20430000Y-72545000D02*
X19830000Y-72545000D01*
X19130000Y-71845000D02*
X19130000Y-70445000D01*
X21130000Y-70445000D02*
X21130000Y-71845000D01*
X19830000Y-69745000D02*
X20430000Y-69745000D01*
X19130000Y-71845000D02*
G75*
G03*
X19830000Y-72545000I699999J-1D01*
G01*
X20430000Y-72545000D02*
G75*
G03*
X21130000Y-71845000I1J699999D01*
G01*
X19830000Y-69745000D02*
G75*
G03*
X19130000Y-70445000I0J-700000D01*
G01*
X21130000Y-70445000D02*
G75*
G03*
X20430000Y-69745000I-700000J0D01*
G01*
X89260000Y-17800000D02*
X92350000Y-17800000D01*
X90805462Y-12250001D02*
G75*
G03*
X89260170Y-17799999I-462J-2989999D01*
G01*
X92349830Y-17800000D02*
G75*
G03*
X90804538Y-12250000I-1544830J2560000D01*
G01*
X93305000Y-15240000D02*
G75*
G03*
X93305000Y-15240000I-2500000J0D01*
G01*
X86085000Y-39390000D02*
X89175000Y-39390000D01*
X87630462Y-33840001D02*
G75*
G03*
X86085170Y-39389999I-462J-2989999D01*
G01*
X89174830Y-39390000D02*
G75*
G03*
X87629538Y-33840000I-1544830J2560000D01*
G01*
X90130000Y-36830000D02*
G75*
G03*
X90130000Y-36830000I-2500000J0D01*
G01*
X24317002Y-51905000D02*
X24317002Y-48815000D01*
X17107998Y-51905000D02*
X17107998Y-48815000D01*
X10347002Y-51830000D02*
X10347002Y-48740000D01*
X18767003Y-50359538D02*
G75*
G03*
X24317001Y-51904830I2989999J-462D01*
G01*
X24317002Y-48815170D02*
G75*
G03*
X18767002Y-50360462I-2560000J-1544830D01*
G01*
X11557999Y-50359538D02*
G75*
G03*
X17107997Y-51904830I2989999J-462D01*
G01*
X17107998Y-48815170D02*
G75*
G03*
X11557998Y-50360462I-2560000J-1544830D01*
G01*
X4796999Y-50284538D02*
G75*
G03*
X10347001Y-51829830I2990001J-462D01*
G01*
X10346999Y-48740172D02*
G75*
G03*
X4797002Y-50285462I-2559999J-1544828D01*
G01*
X24257002Y-50360000D02*
G75*
G03*
X24257002Y-50360000I-2500000J0D01*
G01*
X17047998Y-50360000D02*
G75*
G03*
X17047998Y-50360000I-2500000J0D01*
G01*
X10287002Y-50285000D02*
G75*
G03*
X10287002Y-50285000I-2500000J0D01*
G01*
X84120000Y-72545000D02*
X83520000Y-72545000D01*
X82820000Y-71845000D02*
X82820000Y-70445000D01*
X84820000Y-70445000D02*
X84820000Y-71845000D01*
X83520000Y-69745000D02*
X84120000Y-69745000D01*
X82820000Y-71845000D02*
G75*
G03*
X83520000Y-72545000I699999J-1D01*
G01*
X84120000Y-72545000D02*
G75*
G03*
X84820000Y-71845000I1J699999D01*
G01*
X83520000Y-69745000D02*
G75*
G03*
X82820000Y-70445000I0J-700000D01*
G01*
X84820000Y-70445000D02*
G75*
G03*
X84120000Y-69745000I-700000J0D01*
G01*
X26493480Y-47495182D02*
X29560448Y-47871758D01*
X27372037Y-40339913D02*
X30439004Y-40716489D01*
X28270436Y-33638452D02*
X31337403Y-34015029D01*
X28703797Y-42174896D02*
G75*
G03*
X26493649Y-47495202I-364848J-2967656D01*
G01*
X29560279Y-47871736D02*
G75*
G03*
X28702880Y-42174784I-1221330J2729184D01*
G01*
X29582354Y-35019627D02*
G75*
G03*
X27372205Y-40339933I-364848J-2967656D01*
G01*
X30438835Y-40716469D02*
G75*
G03*
X29581437Y-35019514I-1221329J2729186D01*
G01*
X30480753Y-28318162D02*
G75*
G03*
X28270605Y-33638472I-364848J-2967658D01*
G01*
X31337232Y-34015003D02*
G75*
G03*
X30479836Y-28318054I-1221327J2729183D01*
G01*
X30838950Y-45142552D02*
G75*
G03*
X30838950Y-45142552I-2500001J0D01*
G01*
X31717507Y-37987283D02*
G75*
G03*
X31717507Y-37987283I-2500001J0D01*
G01*
X32615905Y-31285822D02*
G75*
G03*
X32615905Y-31285822I-2500000J0D01*
G01*
X5190000Y-72545000D02*
X4590000Y-72545000D01*
X3890000Y-71845000D02*
X3890000Y-70445000D01*
X5890000Y-70445000D02*
X5890000Y-71845000D01*
X4590000Y-69745000D02*
X5190000Y-69745000D01*
X3890000Y-71845000D02*
G75*
G03*
X4590000Y-72545000I699999J-1D01*
G01*
X5190000Y-72545000D02*
G75*
G03*
X5890000Y-71845000I1J699999D01*
G01*
X4590000Y-69745000D02*
G75*
G03*
X3890000Y-70445000I0J-700000D01*
G01*
X5890000Y-70445000D02*
G75*
G03*
X5190000Y-69745000I-700000J0D01*
G01*
X40750000Y-72545000D02*
X40150000Y-72545000D01*
X39450000Y-71845000D02*
X39450000Y-70445000D01*
X41450000Y-70445000D02*
X41450000Y-71845000D01*
X40150000Y-69745000D02*
X40750000Y-69745000D01*
X39450000Y-71845000D02*
G75*
G03*
X40150000Y-72545000I699999J-1D01*
G01*
X40750000Y-72545000D02*
G75*
G03*
X41450000Y-71845000I1J699999D01*
G01*
X40150000Y-69745000D02*
G75*
G03*
X39450000Y-70445000I0J-700000D01*
G01*
X41450000Y-70445000D02*
G75*
G03*
X40750000Y-69745000I-700000J0D01*
G01*
X68880000Y-72560000D02*
X68280000Y-72560000D01*
X67580000Y-71860000D02*
X67580000Y-70460000D01*
X69580000Y-70460000D02*
X69580000Y-71860000D01*
X68280000Y-69760000D02*
X68880000Y-69760000D01*
X67580000Y-71860000D02*
G75*
G03*
X68280000Y-72560000I699999J-1D01*
G01*
X68880000Y-72560000D02*
G75*
G03*
X69580000Y-71860000I1J699999D01*
G01*
X68280000Y-69760000D02*
G75*
G03*
X67580000Y-70460000I0J-700000D01*
G01*
X69580000Y-70460000D02*
G75*
G03*
X68880000Y-69760000I-700000J0D01*
G01*
X30303480Y-22954182D02*
X33370448Y-23330758D01*
X31182037Y-15798913D02*
X34249004Y-16175489D01*
X32080436Y-9097452D02*
X35147403Y-9474029D01*
X32513797Y-17633896D02*
G75*
G03*
X30303649Y-22954202I-364848J-2967656D01*
G01*
X33370279Y-23330736D02*
G75*
G03*
X32512880Y-17633784I-1221330J2729184D01*
G01*
X33392354Y-10478627D02*
G75*
G03*
X31182205Y-15798933I-364848J-2967656D01*
G01*
X34248835Y-16175469D02*
G75*
G03*
X33391437Y-10478514I-1221329J2729186D01*
G01*
X34290753Y-3777162D02*
G75*
G03*
X32080605Y-9097472I-364848J-2967658D01*
G01*
X35147232Y-9474003D02*
G75*
G03*
X34289836Y-3777054I-1221327J2729183D01*
G01*
X34648950Y-20601552D02*
G75*
G03*
X34648950Y-20601552I-2500001J0D01*
G01*
X35527507Y-13446283D02*
G75*
G03*
X35527507Y-13446283I-2500001J0D01*
G01*
X36425905Y-6744822D02*
G75*
G03*
X36425905Y-6744822I-2500000J0D01*
G01*
X75948480Y-22670282D02*
X79015448Y-23046858D01*
X76827037Y-15515013D02*
X79894004Y-15891589D01*
X77725436Y-8813552D02*
X80792403Y-9190129D01*
X78158797Y-17349996D02*
G75*
G03*
X75948649Y-22670302I-364848J-2967656D01*
G01*
X79015279Y-23046836D02*
G75*
G03*
X78157880Y-17349884I-1221330J2729184D01*
G01*
X79037354Y-10194727D02*
G75*
G03*
X76827205Y-15515033I-364848J-2967656D01*
G01*
X79893835Y-15891569D02*
G75*
G03*
X79036437Y-10194614I-1221329J2729186D01*
G01*
X79935753Y-3493262D02*
G75*
G03*
X77725605Y-8813572I-364848J-2967658D01*
G01*
X80792232Y-9190103D02*
G75*
G03*
X79934836Y-3493154I-1221327J2729183D01*
G01*
X80293950Y-20317652D02*
G75*
G03*
X80293950Y-20317652I-2500001J0D01*
G01*
X81172507Y-13162383D02*
G75*
G03*
X81172507Y-13162383I-2500001J0D01*
G01*
X82070905Y-6460922D02*
G75*
G03*
X82070905Y-6460922I-2500000J0D01*
G01*
X50548480Y-22954182D02*
X53615448Y-23330758D01*
X51427037Y-15798913D02*
X54494004Y-16175489D01*
X52325436Y-9097452D02*
X55392403Y-9474029D01*
X52758797Y-17633896D02*
G75*
G03*
X50548649Y-22954202I-364848J-2967656D01*
G01*
X53615279Y-23330736D02*
G75*
G03*
X52757880Y-17633784I-1221330J2729184D01*
G01*
X53637354Y-10478627D02*
G75*
G03*
X51427205Y-15798933I-364848J-2967656D01*
G01*
X54493835Y-16175469D02*
G75*
G03*
X53636437Y-10478514I-1221329J2729186D01*
G01*
X54535753Y-3777162D02*
G75*
G03*
X52325605Y-9097472I-364848J-2967658D01*
G01*
X55392232Y-9474003D02*
G75*
G03*
X54534836Y-3777054I-1221327J2729183D01*
G01*
X54893950Y-20601552D02*
G75*
G03*
X54893950Y-20601552I-2500001J0D01*
G01*
X55772507Y-13446283D02*
G75*
G03*
X55772507Y-13446283I-2500001J0D01*
G01*
X56670905Y-6744822D02*
G75*
G03*
X56670905Y-6744822I-2500000J0D01*
G01*
X74482002Y-27580000D02*
X74482002Y-24490000D01*
X67272998Y-27580000D02*
X67272998Y-24490000D01*
X60512002Y-27505000D02*
X60512002Y-24415000D01*
X68932003Y-26034538D02*
G75*
G03*
X74482001Y-27579830I2989999J-462D01*
G01*
X74482002Y-24490170D02*
G75*
G03*
X68932002Y-26035462I-2560000J-1544830D01*
G01*
X61722999Y-26034538D02*
G75*
G03*
X67272997Y-27579830I2989999J-462D01*
G01*
X67272998Y-24490170D02*
G75*
G03*
X61722998Y-26035462I-2560000J-1544830D01*
G01*
X54961999Y-25959538D02*
G75*
G03*
X60512001Y-27504830I2990001J-462D01*
G01*
X60511999Y-24415172D02*
G75*
G03*
X54962002Y-25960462I-2559999J-1544828D01*
G01*
X74422002Y-26035000D02*
G75*
G03*
X74422002Y-26035000I-2500000J0D01*
G01*
X67212998Y-26035000D02*
G75*
G03*
X67212998Y-26035000I-2500000J0D01*
G01*
X60452002Y-25960000D02*
G75*
G03*
X60452002Y-25960000I-2500000J0D01*
G01*
X4828480Y-22730182D02*
X7895448Y-23106758D01*
X5707037Y-15574913D02*
X8774004Y-15951489D01*
X6605436Y-8873452D02*
X9672403Y-9250029D01*
X7038797Y-17409896D02*
G75*
G03*
X4828649Y-22730202I-364848J-2967656D01*
G01*
X7895279Y-23106736D02*
G75*
G03*
X7037880Y-17409784I-1221330J2729184D01*
G01*
X7917354Y-10254627D02*
G75*
G03*
X5707205Y-15574933I-364848J-2967656D01*
G01*
X8773835Y-15951469D02*
G75*
G03*
X7916437Y-10254514I-1221329J2729186D01*
G01*
X8815753Y-3553162D02*
G75*
G03*
X6605605Y-8873472I-364848J-2967658D01*
G01*
X9672232Y-9250003D02*
G75*
G03*
X8814836Y-3553054I-1221327J2729183D01*
G01*
X9173950Y-20377552D02*
G75*
G03*
X9173950Y-20377552I-2500001J0D01*
G01*
X10052507Y-13222283D02*
G75*
G03*
X10052507Y-13222283I-2500001J0D01*
G01*
X10950905Y-6520822D02*
G75*
G03*
X10950905Y-6520822I-2500000J0D01*
G01*
X70729002Y-51830000D02*
X70729002Y-48740000D01*
X63519998Y-51830000D02*
X63519998Y-48740000D01*
X56759002Y-51755000D02*
X56759002Y-48665000D01*
X65179003Y-50284538D02*
G75*
G03*
X70729001Y-51829830I2989999J-462D01*
G01*
X70729002Y-48740170D02*
G75*
G03*
X65179002Y-50285462I-2560000J-1544830D01*
G01*
X57969999Y-50284538D02*
G75*
G03*
X63519997Y-51829830I2989999J-462D01*
G01*
X63519998Y-48740170D02*
G75*
G03*
X57969998Y-50285462I-2560000J-1544830D01*
G01*
X51208999Y-50209538D02*
G75*
G03*
X56759001Y-51754830I2990001J-462D01*
G01*
X56758999Y-48665172D02*
G75*
G03*
X51209002Y-50210462I-2559999J-1544828D01*
G01*
X70669002Y-50285000D02*
G75*
G03*
X70669002Y-50285000I-2500000J0D01*
G01*
X63459998Y-50285000D02*
G75*
G03*
X63459998Y-50285000I-2500000J0D01*
G01*
X56699002Y-50210000D02*
G75*
G03*
X56699002Y-50210000I-2500000J0D01*
G01*
X48560000Y-72545000D02*
X47960000Y-72545000D01*
X47260000Y-71845000D02*
X47260000Y-70445000D01*
X49260000Y-70445000D02*
X49260000Y-71845000D01*
X47960000Y-69745000D02*
X48560000Y-69745000D01*
X47260000Y-71845000D02*
G75*
G03*
X47960000Y-72545000I699999J-1D01*
G01*
X48560000Y-72545000D02*
G75*
G03*
X49260000Y-71845000I1J699999D01*
G01*
X47960000Y-69745000D02*
G75*
G03*
X47260000Y-70445000I0J-700000D01*
G01*
X49260000Y-70445000D02*
G75*
G03*
X48560000Y-69745000I-700000J0D01*
G01*
X63800000Y-72545000D02*
X63200000Y-72545000D01*
X62500000Y-71845000D02*
X62500000Y-70445000D01*
X64500000Y-70445000D02*
X64500000Y-71845000D01*
X63200000Y-69745000D02*
X63800000Y-69745000D01*
X62500000Y-71845000D02*
G75*
G03*
X63200000Y-72545000I699999J-1D01*
G01*
X63800000Y-72545000D02*
G75*
G03*
X64500000Y-71845000I1J699999D01*
G01*
X63200000Y-69745000D02*
G75*
G03*
X62500000Y-70445000I0J-700000D01*
G01*
X64500000Y-70445000D02*
G75*
G03*
X63800000Y-69745000I-700000J0D01*
G01*
X53640000Y-72545000D02*
X53040000Y-72545000D01*
X52340000Y-71845000D02*
X52340000Y-70445000D01*
X54340000Y-70445000D02*
X54340000Y-71845000D01*
X53040000Y-69745000D02*
X53640000Y-69745000D01*
X52340000Y-71845000D02*
G75*
G03*
X53040000Y-72545000I699999J-1D01*
G01*
X53640000Y-72545000D02*
G75*
G03*
X54340000Y-71845000I1J699999D01*
G01*
X53040000Y-69745000D02*
G75*
G03*
X52340000Y-70445000I0J-700000D01*
G01*
X54340000Y-70445000D02*
G75*
G03*
X53640000Y-69745000I-700000J0D01*
G01*
X72848480Y-48130182D02*
X75915448Y-48506758D01*
X73727037Y-40974913D02*
X76794004Y-41351489D01*
X74625436Y-34273452D02*
X77692403Y-34650029D01*
X75058797Y-42809896D02*
G75*
G03*
X72848649Y-48130202I-364848J-2967656D01*
G01*
X75915279Y-48506736D02*
G75*
G03*
X75057880Y-42809784I-1221330J2729184D01*
G01*
X75937354Y-35654627D02*
G75*
G03*
X73727205Y-40974933I-364848J-2967656D01*
G01*
X76793835Y-41351469D02*
G75*
G03*
X75936437Y-35654514I-1221329J2729186D01*
G01*
X76835753Y-28953162D02*
G75*
G03*
X74625605Y-34273472I-364848J-2967658D01*
G01*
X77692232Y-34650003D02*
G75*
G03*
X76834836Y-28953054I-1221327J2729183D01*
G01*
X77193950Y-45777552D02*
G75*
G03*
X77193950Y-45777552I-2500001J0D01*
G01*
X78072507Y-38622283D02*
G75*
G03*
X78072507Y-38622283I-2500001J0D01*
G01*
X78970905Y-31920822D02*
G75*
G03*
X78970905Y-31920822I-2500000J0D01*
G01*
X30590000Y-72545000D02*
X29990000Y-72545000D01*
X29290000Y-71845000D02*
X29290000Y-70445000D01*
X31290000Y-70445000D02*
X31290000Y-71845000D01*
X29990000Y-69745000D02*
X30590000Y-69745000D01*
X29290000Y-71845000D02*
G75*
G03*
X29990000Y-72545000I699999J-1D01*
G01*
X30590000Y-72545000D02*
G75*
G03*
X31290000Y-71845000I1J699999D01*
G01*
X29990000Y-69745000D02*
G75*
G03*
X29290000Y-70445000I0J-700000D01*
G01*
X31290000Y-70445000D02*
G75*
G03*
X30590000Y-69745000I-700000J0D01*
G01*
X27960002Y-27580000D02*
X27960002Y-24490000D01*
X20750998Y-27580000D02*
X20750998Y-24490000D01*
X13990002Y-27505000D02*
X13990002Y-24415000D01*
X22410003Y-26034538D02*
G75*
G03*
X27960001Y-27579830I2989999J-462D01*
G01*
X27960002Y-24490170D02*
G75*
G03*
X22410002Y-26035462I-2560000J-1544830D01*
G01*
X15200999Y-26034538D02*
G75*
G03*
X20750997Y-27579830I2989999J-462D01*
G01*
X20750998Y-24490170D02*
G75*
G03*
X15200998Y-26035462I-2560000J-1544830D01*
G01*
X8439999Y-25959538D02*
G75*
G03*
X13990001Y-27504830I2990001J-462D01*
G01*
X13989999Y-24415172D02*
G75*
G03*
X8440002Y-25960462I-2559999J-1544828D01*
G01*
X27900002Y-26035000D02*
G75*
G03*
X27900002Y-26035000I-2500000J0D01*
G01*
X20690998Y-26035000D02*
G75*
G03*
X20690998Y-26035000I-2500000J0D01*
G01*
X13930002Y-25960000D02*
G75*
G03*
X13930002Y-25960000I-2500000J0D01*
G01*
X46971180Y-47495182D02*
X50038148Y-47871758D01*
X47849737Y-40339913D02*
X50916704Y-40716489D01*
X48748136Y-33638452D02*
X51815103Y-34015029D01*
X49181497Y-42174896D02*
G75*
G03*
X46971349Y-47495202I-364848J-2967656D01*
G01*
X50037979Y-47871736D02*
G75*
G03*
X49180580Y-42174784I-1221330J2729184D01*
G01*
X50060054Y-35019627D02*
G75*
G03*
X47849905Y-40339933I-364848J-2967656D01*
G01*
X50916535Y-40716469D02*
G75*
G03*
X50059137Y-35019514I-1221329J2729186D01*
G01*
X50958453Y-28318162D02*
G75*
G03*
X48748305Y-33638472I-364848J-2967658D01*
G01*
X51814932Y-34015003D02*
G75*
G03*
X50957536Y-28318054I-1221327J2729183D01*
G01*
X51316650Y-45142552D02*
G75*
G03*
X51316650Y-45142552I-2500001J0D01*
G01*
X52195207Y-37987283D02*
G75*
G03*
X52195207Y-37987283I-2500001J0D01*
G01*
X53093605Y-31285822D02*
G75*
G03*
X53093605Y-31285822I-2500000J0D01*
G01*
X10270000Y-72545000D02*
X9670000Y-72545000D01*
X8970000Y-71845000D02*
X8970000Y-70445000D01*
X10970000Y-70445000D02*
X10970000Y-71845000D01*
X9670000Y-69745000D02*
X10270000Y-69745000D01*
X8970000Y-71845000D02*
G75*
G03*
X9670000Y-72545000I699999J-1D01*
G01*
X10270000Y-72545000D02*
G75*
G03*
X10970000Y-71845000I1J699999D01*
G01*
X9670000Y-69745000D02*
G75*
G03*
X8970000Y-70445000I0J-700000D01*
G01*
X10970000Y-70445000D02*
G75*
G03*
X10270000Y-69745000I-700000J0D01*
G01*
X73960000Y-72545000D02*
X73360000Y-72545000D01*
X72660000Y-71845000D02*
X72660000Y-70445000D01*
X74660000Y-70445000D02*
X74660000Y-71845000D01*
X73360000Y-69745000D02*
X73960000Y-69745000D01*
X72660000Y-71845000D02*
G75*
G03*
X73360000Y-72545000I699999J-1D01*
G01*
X73960000Y-72545000D02*
G75*
G03*
X74660000Y-71845000I1J699999D01*
G01*
X73360000Y-69745000D02*
G75*
G03*
X72660000Y-70445000I0J-700000D01*
G01*
X74660000Y-70445000D02*
G75*
G03*
X73960000Y-69745000I-700000J0D01*
G01*
M02*
